/* XPM */
static char * Collectible_xpm[] = {
"64 64 702 2",
"  	c None",
". 	c #FFFFFF",
"+ 	c #FBFCFC",
"@ 	c #F5F8F8",
"# 	c #FDFEFE",
"$ 	c #E3E9EA",
"% 	c #C2D0D2",
"& 	c #F5F7F8",
"* 	c #DDE5E6",
"= 	c #B8C8CA",
"- 	c #B4C4C7",
"; 	c #F3F6F6",
"> 	c #E4EAEB",
", 	c #E0E7E8",
"' 	c #ECF0F1",
") 	c #C8D4D6",
"! 	c #D4DDDF",
"~ 	c #F8FAFA",
"{ 	c #F4F6F7",
"] 	c #A8BBBE",
"^ 	c #CBD6D8",
"/ 	c #F8F9FA",
"( 	c #F3F5F6",
"_ 	c #B8C8CB",
": 	c #D2DCDE",
"< 	c #B4C5C7",
"[ 	c #C2CFD2",
"} 	c #E5EBEC",
"| 	c #DFE6E7",
"1 	c #EDF1F2",
"2 	c #F8F9F9",
"3 	c #CFDADC",
"4 	c #B2C3C6",
"5 	c #A6B9BD",
"6 	c #B6C6C9",
"7 	c #D0DADC",
"8 	c #CAD5D7",
"9 	c #BDCCCE",
"0 	c #F4F6F6",
"a 	c #F6F8F8",
"b 	c #B9C8CB",
"c 	c #DBE3E4",
"d 	c #B4C5C8",
"e 	c #E0E6E8",
"f 	c #E1E8E9",
"g 	c #ADBFC2",
"h 	c #E1E7E9",
"i 	c #E7ECED",
"j 	c #CCD7D9",
"k 	c #CBD7D9",
"l 	c #F7F9F9",
"m 	c #E2E8E9",
"n 	c #AABDC0",
"o 	c #A8BBBF",
"p 	c #FAFBFB",
"q 	c #F7F8F9",
"r 	c #AEC0C3",
"s 	c #DCE4E5",
"t 	c #DAE2E3",
"u 	c #FAFBFC",
"v 	c #B8C7CA",
"w 	c #EAEEEF",
"x 	c #D0DBDC",
"y 	c #B1C2C5",
"z 	c #F6FCE5",
"A 	c #C9EE5B",
"B 	c #E6EBEC",
"C 	c #FCFDFD",
"D 	c #F4FFD2",
"E 	c #F4FFD1",
"F 	c #F6F7E2",
"G 	c #C8CB49",
"H 	c #BCD72D",
"I 	c #D0F871",
"J 	c #E9FFB4",
"K 	c #CAD6D7",
"L 	c #B5C5C8",
"M 	c #C9D4D8",
"N 	c #FDFFF9",
"O 	c #F6FFDA",
"P 	c #E9FFA3",
"Q 	c #EDFFB5",
"R 	c #FFFFFE",
"S 	c #FAF8ED",
"T 	c #DED18A",
"U 	c #C7CF47",
"V 	c #C8D84B",
"W 	c #DBDF81",
"X 	c #FDFCF5",
"Y 	c #FBF9E7",
"Z 	c #FEFEFB",
"` 	c #C8D4D7",
" .	c #FEFFFF",
"..	c #D0DADE",
"+.	c #FCFFF2",
"@.	c #ECFFAE",
"#.	c #E5FF91",
"$.	c #EEFFB9",
"%.	c #FEFEFD",
"&.	c #DED38B",
"*.	c #C8B53E",
"=.	c #D2C362",
"-.	c #F8F6E7",
";.	c #F2ECB7",
">.	c #E4D562",
",.	c #FAF8E4",
"'.	c #C9D6DB",
").	c #C9D5D7",
"!.	c #FFFFFD",
"~.	c #FCFFF1",
"{.	c #ECFFB0",
"].	c #EEFFB7",
"^.	c #F6F3E0",
"/.	c #F8F5E6",
"(.	c #FEFDFA",
"_.	c #F3E9B2",
":.	c #DCD958",
"<.	c #CBE03F",
"[.	c #D5F07C",
"}.	c #DEEDCB",
"|.	c #EEF2FC",
"1.	c #F9FFE5",
"2.	c #F9FFE4",
"3.	c #E6F8B3",
"4.	c #E7FAB8",
"5.	c #FDFBEF",
"6.	c #EADF87",
"7.	c #F7F2CF",
"8.	c #F1EBB1",
"9.	c #DDDA5E",
"0.	c #C8DB30",
"a.	c #BFED40",
"b.	c #BEED3D",
"c.	c #E1EC87",
"d.	c #F6EAB5",
"e.	c #F4ECBC",
"f.	c #FFFCF9",
"g.	c #F8FFDE",
"h.	c #CFF36D",
"i.	c #D5F483",
"j.	c #FDFAEF",
"k.	c #EADE87",
"l.	c #EDE397",
"m.	c #F0EEB4",
"n.	c #F7FFE6",
"o.	c #E5F49D",
"p.	c #DCCD3E",
"q.	c #C9DD36",
"r.	c #BFED42",
"s.	c #C0EC41",
"t.	c #C3E73E",
"u.	c #D0D535",
"v.	c #D7C92B",
"w.	c #DBD248",
"x.	c #F2F6CC",
"y.	c #FDFFFA",
"z.	c #FCFEF8",
"A.	c #F4FDD9",
"B.	c #E3FC94",
"C.	c #CCEE51",
"D.	c #D5EE78",
"E.	c #F7FDE9",
"F.	c #E8D976",
"G.	c #DED857",
"H.	c #E7FBAE",
"I.	c #E6F49D",
"J.	c #DBCD3D",
"K.	c #BEEE42",
"L.	c #D3D031",
"M.	c #CBDC38",
"N.	c #C3E73D",
"O.	c #C4E841",
"P.	c #C8EE58",
"Q.	c #EBF9C4",
"R.	c #EBF9C3",
"S.	c #C8EF5A",
"T.	c #C5EE4D",
"U.	c #D0D737",
"V.	c #D1D63A",
"W.	c #D0F171",
"X.	c #F7FDE8",
"Y.	c #E8D978",
"Z.	c #DDD856",
"`.	c #E7FBAD",
" +	c #F0F9CA",
".+	c #CEE24A",
"++	c #BFE633",
"@+	c #C4E338",
"#+	c #D0D534",
"$+	c #BEEE3F",
"%+	c #C4F051",
"&+	c #E1F6A5",
"*+	c #F7FDE7",
"=+	c #E7F8B8",
"-+	c #BEED3E",
";+	c #C6E33C",
">+	c #CCD832",
",+	c #D0D83B",
"'+	c #D5F07B",
")+	c #CEE656",
"!+	c #CBE649",
"~+	c #CFF46A",
"{+	c #FAFEF2",
"]+	c #DDF69C",
"^+	c #D7F68D",
"/+	c #DAE268",
"(+	c #D7CA2F",
"_+	c #C3E83E",
":+	c #BEEF43",
"<+	c #C1E637",
"[+	c #D0E150",
"}+	c #FAFBE9",
"|+	c #ECF4BA",
"1+	c #CADE3A",
"2+	c #C9DE38",
"3+	c #C1EA40",
"4+	c #C9DF3A",
"5+	c #D8C82C",
"6+	c #CADA32",
"7+	c #C2E93D",
"8+	c #BCE33A",
"9+	c #B7D22D",
"0+	c #FEFFFC",
"a+	c #F9FBE8",
"b+	c #EFE49E",
"c+	c #D7CB30",
"d+	c #C1EB3F",
"e+	c #CDDC3D",
"f+	c #E3D561",
"g+	c #FBF8E6",
"h+	c #FDFCF3",
"i+	c #EEE59F",
"j+	c #DAC62D",
"k+	c #DAC62B",
"l+	c #DAC62C",
"m+	c #C9E039",
"n+	c #BDD941",
"o+	c #BCB842",
"p+	c #F7FCE8",
"q+	c #D0F172",
"r+	c #D6DA4D",
"s+	c #DFC93D",
"t+	c #D6CB2F",
"u+	c #C4E73E",
"v+	c #CCD730",
"w+	c #E4DA6F",
"x+	c #FBF8E5",
"y+	c #FFFEFC",
"z+	c #EBE08C",
"A+	c #DCC938",
"B+	c #D8C92E",
"C+	c #C8DE34",
"D+	c #D3F080",
"E+	c #F4F3E0",
"F+	c #E4DECC",
"G+	c #BBB376",
"H+	c #D4ED82",
"I+	c #D9D845",
"J+	c #DAC01F",
"K+	c #D7CA2E",
"L+	c #C3E83F",
"M+	c #CED32C",
"N+	c #EADB7D",
"O+	c #DDD076",
"P+	c #CFB921",
"Q+	c #DBC72C",
"R+	c #DAC52C",
"S+	c #DBC52B",
"T+	c #DBC42A",
"U+	c #DAC429",
"V+	c #E2E581",
"W+	c #F2FDDB",
"X+	c #D4CBAD",
"Y+	c #927E28",
"Z+	c #C7C671",
"`+	c #E4DD85",
" @	c #E1DA61",
".@	c #CED530",
"+@	c #C9DB33",
"@@	c #D3CD2A",
"#@	c #E0CE5A",
"$@	c #EDE7BC",
"%@	c #FEFEFA",
"&@	c #D9CC7C",
"*@	c #C6B125",
"=@	c #D4BF2C",
"-@	c #DAC42C",
";@	c #DBC429",
">@	c #D5CA2A",
",@	c #D1D435",
"'@	c #DCD955",
")@	c #F5F2C8",
"!@	c #D2C9A9",
"~@	c #907922",
"{@	c #A58C25",
"]@	c #DACDA1",
"^@	c #E6F4B7",
"/@	c #CCEA5A",
"(@	c #DCD34B",
"_@	c #DBCD38",
":@	c #CCBC27",
"<@	c #C5B243",
"[@	c #EBE4C9",
"}@	c #F6F3E6",
"|@	c #FAF9ED",
"1@	c #FFFEFD",
"2@	c #D3C36D",
"3@	c #BBA424",
"4@	c #C1AD2B",
"5@	c #D3C62E",
"6@	c #DBCC38",
"7@	c #D3D943",
"8@	c #CBF05E",
"9@	c #E5FAAB",
"0@	c #F8FEE8",
"a@	c #907821",
"b@	c #A48B24",
"c@	c #AE9632",
"d@	c #CCC17F",
"e@	c #F6FBE4",
"f@	c #F9F8E2",
"g@	c #D9F07B",
"h@	c #B6C42F",
"i@	c #A48B28",
"j@	c #AA933C",
"k@	c #BEA940",
"l@	c #DFD38B",
"m@	c #FEFEFE",
"n@	c #D2C261",
"o@	c #B0992C",
"p@	c #A18521",
"q@	c #A79627",
"r@	c #BFDA3C",
"s@	c #DAF17A",
"t@	c #E4F69E",
"u@	c #E5F9AA",
"v@	c #F8FEE9",
"w@	c #967E22",
"x@	c #9E851D",
"y@	c #B9A140",
"z@	c #D8C37A",
"A@	c #D8C57C",
"B@	c #E4EAA8",
"C@	c #E7F0C3",
"D@	c #D7D2A4",
"E@	c #B7C643",
"F@	c #AAA01F",
"G@	c #B1973B",
"H@	c #BFAC6E",
"I@	c #BEAC6C",
"J@	c #BEAC6B",
"K@	c #C0AD71",
"L@	c #BEA866",
"M@	c #AD922A",
"N@	c #AFB12B",
"O@	c #B2C835",
"P@	c #B8CE42",
"Q@	c #D4F380",
"R@	c #D4D96F",
"S@	c #CDBF55",
"T@	c #D6CA71",
"U@	c #F9F7EB",
"V@	c #8B7421",
"W@	c #9C8424",
"X@	c #B29A23",
"Y@	c #BEA61E",
"Z@	c #BEA01F",
"`@	c #DAC67F",
" #	c #EDE1BF",
".#	c #E6DFA6",
"+#	c #C7D649",
"@#	c #ABB730",
"##	c #A8A73D",
"$#	c #B6AC51",
"%#	c #BCAD65",
"&#	c #C0AE73",
"*#	c #BEAE6C",
"=#	c #B8AC55",
"-#	c #B7AC52",
";#	c #AEA943",
">#	c #9FA42C",
",#	c #A1A631",
"'#	c #B5C436",
")#	c #C2D637",
"!#	c #C5D542",
"~#	c #D7D976",
"{#	c #C9B446",
"]#	c #BC9D18",
"^#	c #C8B440",
"/#	c #F6F3E1",
"(#	c #8C7521",
"_#	c #9B8223",
":#	c #B09F26",
"<#	c #C3B928",
"[#	c #C1A526",
"}#	c #C0A127",
"|#	c #C0A227",
"1#	c #C0A226",
"2#	c #B3C838",
"3#	c #C0E867",
"4#	c #E1F29A",
"5#	c #E2F29C",
"6#	c #EFF4C7",
"7#	c #F8F6E5",
"8#	c #F4F5D7",
"9#	c #E5F2A5",
"0#	c #E3F39C",
"a#	c #CFEB7C",
"b#	c #AEDF48",
"c#	c #AEDF46",
"d#	c #B9B832",
"e#	c #C19F25",
"f#	c #C0A126",
"g#	c #C0A026",
"h#	c #C0AA21",
"i#	c #CBC645",
"j#	c #F7F6E2",
"k#	c #8D7521",
"l#	c #A29224",
"m#	c #C2B928",
"n#	c #C0A025",
"o#	c #C0A125",
"p#	c #C0B62A",
"q#	c #C3C532",
"r#	c #C8C63B",
"s#	c #CAC642",
"t#	c #CCC647",
"u#	c #CBC644",
"v#	c #C9C63C",
"w#	c #C5C536",
"x#	c #C0C32D",
"y#	c #C0AD29",
"z#	c #C09F26",
"A#	c #BFA921",
"B#	c #CBC646",
"C#	c #92772D",
"D#	c #9F8132",
"E#	c #BC9E27",
"F#	c #C3A525",
"G#	c #C1A326",
"H#	c #B8C336",
"I#	c #B9CE35",
"J#	c #C2BC25",
"K#	c #C2BB24",
"L#	c #C2BB23",
"M#	c #C1BB22",
"N#	c #C3BC25",
"O#	c #C4BC27",
"P#	c #C4BB26",
"Q#	c #C2AA26",
"R#	c #C2A325",
"S#	c #C4A525",
"T#	c #B29329",
"U#	c #9F833F",
"V#	c #885D39",
"W#	c #A6812F",
"X#	c #A9852E",
"Y#	c #B2902B",
"Z#	c #C2A225",
"`#	c #C2A326",
" $	c #B3D240",
".$	c #B3DC41",
"+$	c #C3BC27",
"@$	c #C3BD28",
"#$	c #C2BF29",
"$$	c #BCCD34",
"%$	c #BFB42C",
"&$	c #BE9F27",
"*$	c #AD8A2D",
"=$	c #AA862E",
"-$	c #9E7832",
";$	c #7F513A",
">$	c #845C3B",
",$	c #835A3C",
"'$	c #977234",
")$	c #B89629",
"!$	c #B89829",
"~$	c #ABBD3F",
"{$	c #AFCF40",
"]$	c #C0C22C",
"^$	c #C3BE29",
"/$	c #C3BF29",
"($	c #BCC531",
"_$	c #A9CF46",
":$	c #B0AD36",
"<$	c #BA9727",
"[$	c #B18F2B",
"}$	c #8B6439",
"|$	c #845B3B",
"1$	c #896C3D",
"2$	c #8A703D",
"3$	c #8A6A3B",
"4$	c #8B6238",
"5$	c #88643B",
"6$	c #969742",
"7$	c #B1DA43",
"8$	c #BCCC34",
"9$	c #8D7B3F",
"0$	c #89623A",
"a$	c #8B6138",
"b$	c #8A6D3C",
"c$	c #87673C",
"d$	c #83593B",
"e$	c #8B6A37",
"f$	c #978532",
"g$	c #9A8F32",
"h$	c #917F39",
"i$	c #896E3D",
"j$	c #86673D",
"k$	c #86653C",
"l$	c #8A733F",
"m$	c #958F3E",
"n$	c #AE9E29",
"o$	c #BEB326",
"p$	c #C4BE28",
"q$	c #BAAC25",
"r$	c #A69930",
"s$	c #908741",
"t$	c #886B3D",
"u$	c #87693D",
"v$	c #8B723D",
"w$	c #958736",
"x$	c #9A8D32",
"y$	c #947F33",
"z$	c #855E3A",
"A$	c #8B6A38",
"B$	c #968232",
"C$	c #A29E2D",
"D$	c #9C9232",
"E$	c #907D39",
"F$	c #8B743D",
"G$	c #8B753D",
"H$	c #8C763D",
"I$	c #87663D",
"J$	c #845839",
"K$	c #987C30",
"L$	c #B6A92A",
"M$	c #C5C028",
"N$	c #C4BD28",
"O$	c #AB9A2B",
"P$	c #906D33",
"Q$	c #82563B",
"R$	c #8B733D",
"S$	c #948536",
"T$	c #9F9830",
"U$	c #A09A2E",
"V$	c #917735",
"W$	c #896439",
"X$	c #845C37",
"Y$	c #968431",
"Z$	c #A3A12C",
"`$	c #9F982F",
" %	c #8E793B",
".%	c #8A723D",
"+%	c #8A6F3D",
"@%	c #89693B",
"#%	c #886439",
"$%	c #8D763A",
"%%	c #ADA22F",
"&%	c #C2BD28",
"*%	c #BFB929",
"=%	c #A09134",
"-%	c #8A6E3B",
";%	c #88633A",
">%	c #896D3C",
",%	c #8A723E",
"'%	c #938337",
")%	c #A29D2D",
"!%	c #8F7334",
"~%	c #835838",
"{%	c #8B7125",
"]%	c #998D2A",
"^%	c #A4A12D",
"/%	c #855F3B",
"(%	c #83593C",
"_%	c #8E7137",
":%	c #9E952F",
"<%	c #A39E2E",
"[%	c #B2AD2B",
"}%	c #ABA62C",
"|%	c #A19B2E",
"1%	c #9A8D31",
"2%	c #88643A",
"3%	c #835A3B",
"4%	c #87643C",
"5%	c #938128",
"6%	c #896E24",
"7%	c #8C7620",
"8%	c #A89D26",
"9%	c #B2AE2B",
"0%	c #A09B2E",
"a%	c #9A8E31",
"b%	c #907B39",
"c%	c #89703E",
"d%	c #8C743C",
"e%	c #958134",
"f%	c #968332",
"g%	c #9A8D30",
"h%	c #A5A12C",
"i%	c #B5B02A",
"j%	c #B7B22A",
"k%	c #BBB629",
"l%	c #C1BB28",
"m%	c #B8B32A",
"n%	c #B0AC2A",
"o%	c #A09B2D",
"p%	c #988731",
"q%	c #978432",
"r%	c #927D36",
"s%	c #8A713E",
"t%	c #938237",
"u%	c #9B9331",
"v%	c #A4A02D",
"w%	c #B5B12A",
"x%	c #9C8C24",
"y%	c #8A7220",
"z%	c #A59624",
"A%	c #B0A627",
"B%	c #AEAE2D",
"C%	c #A8BA37",
"D%	c #9A9738",
"E%	c #927E37",
"F%	c #958636",
"G%	c #A09C2E",
"H%	c #A7A42C",
"I%	c #C2BC28",
"J%	c #C6BF28",
"K%	c #C5BE28",
"L%	c #C5BF28",
"M%	c #C6C028",
"N%	c #BDB829",
"O%	c #ADA92B",
"P%	c #A5A22C",
"Q%	c #9D9430",
"R%	c #938136",
"S%	c #A59D2F",
"T%	c #B1AE2B",
"U%	c #B0AA2A",
"V%	c #AFA426",
"W%	c #9C8A23",
"X%	c #897121",
"Y%	c #9F8C23",
"Z%	c #B8B72B",
"`%	c #AAD042",
" &	c #A4BA3A",
".&	c #A4A42F",
"+&	c #A7A22C",
"@&	c #A39F2D",
"#&	c #ACA72B",
"$&	c #BEB829",
"%&	c #BEB929",
"&&	c #BFB928",
"*&	c #BAB529",
"=&	c #A6A12C",
"-&	c #A6A52E",
";&	c #A4A731",
">&	c #A6A32D",
",&	c #B4AD29",
"'&	c #BDB527",
")&	c #B5AB26",
"!&	c #947F22",
"~&	c #937F22",
"{&	c #918426",
"]&	c #A0BD3D",
"^&	c #B2D13D",
"/&	c #ACA82B",
"(&	c #A6A32C",
"_&	c #A7A32C",
":&	c #A6A22C",
"<&	c #B5AD29",
"[&	c #B7C735",
"}&	c #ADD643",
"|&	c #BBBD2D",
"1&	c #A49324",
"2&	c #927D22",
"3&	c #95972E",
"4&	c #9B9A2C",
"5&	c #A08F23",
"6&	c #B0A628",
"7&	c #B9B52A",
"8&	c #B8B42A",
"9&	c #AEC439",
"0&	c #A7CF43",
"a&	c #A8CE42",
"b&	c #B9B42A",
"c&	c #A99C25",
"d&	c #9C9428",
"e&	c #999C2F",
"f&	c #9F9125",
"g&	c #978322",
"h&	c #8A701F",
"i&	c #B0A425",
"j&	c #AFA225",
"k&	c #AFA325",
"l&	c #A5B334",
"m&	c #9FBE3D",
"n&	c #9FBD3D",
"o&	c #9B8923",
"p&	c #876D20",
"q&	c #8A6F1F",
"r&	c #897120",
"s&	c #8C7621",
"                                                                                                                                ",
"                                                    . .                                                                         ",
"                                                  . . .                                                                         ",
"                                                  . . .                                                                         ",
"                                                                                                                                ",
"                                                                                                                                ",
"                                                                                                                                ",
"                                                                                                                                ",
"                                                                                                                                ",
"                                        . . . . .                                                                               ",
"                                        . . . . . .                                                                             ",
"                                      . . . . . . . .                 . . . + @ #                                               ",
"                                      . . . . . . . .             . . . . . $ % & . .                                           ",
"                                      . . . . . . . .           . . . . . * = - ; . .                                           ",
"                                      . . . . . . . .           > , ' . . * ) ! ~ . .                                           ",
"                                      . . . . . . . .         { = ] ^ . . / ( & # . .                                           ",
"                                        . . . . .             { _ ] ^ . . : < [ @ . .                                           ",
"                                                              + } | 1 2 3 4 5 6 { . .                                           ",
"                                                              . . . . / 7 8 9 6 0 . .                                           ",
"                                                                . . . . . . $ [ & . .                                           ",
"                                                                  . . . . . + a #                                               ",
"                                            . 2 b | . .             . . . . . .                                                 ",
"                                          . a c d e . .               . . . . .                                                 ",
"                                        . . f g g h . . .             . . . .                                                   ",
"                                      . . . f g g f . . . . .         . .                                                       ",
"                                    i j k 1 l > > & . . . . .         . .                                                       ",
"                                  . m n o f p > > q . . . . .       . . . .                                                     ",
"                                  . m r 6 h s g g t u . . . . . . . . . . . .                                                   ",
"                                  . , v w x 4 g g y : . . . . . . . . . . . . z A                                               ",
"                                  . 0 B C k ] n n ] 8 . . D E . . . . . . . . F G H I J                                         ",
"                                  . . . . K L ^ ^ - M N O P Q R . . . . . . . S T U V W                                         ",
"                                  . X Y Z ` )  .. 3 ..+.@.#.$.R . . . . . . . . %.&.*.=.-.                                      ",
"                                . . ;.>.,.'.).. . / / !.~.{.].R . . . . . . . . . S ^./.(.. .                                   ",
"                                . _.:.<.[.}.|.. . . . . . 1.2.. . . . . . . . . . 3.4.5.6.7..                                   ",
"                                8.9.0.a.b.c.d.e.f.. . . . . . . . . . . . . . . g.h.i.j.k.l.m.                                  ",
"                          . n.o.p.q.r.s.t.u.v.w.x.y.. . . . . . . . . . . . z.A.B.C.D.E.Z F.G.H.                                ",
"                          . n.I.J.q.K.t.L.M.N.O.P.Q.. . . . . . . . . . . . R.S.T.U.V.W.X.Y.Z.`.                                ",
"                        . . N  +.+++@+#+M.t.$+%+&+*+. . . . . . . . . . . . =+-+-+;+>+,+'+)+!+~+                                ",
"                        . . . {+]+^+/+(+_+:+<+[+}+. . . . . . . . . . . . . |+1+2+3+4+5+6+7+8+9+                                ",
"                  . . . . . . 0+X.a+b+c+N.d+e+f+g+. . . . . . . . . . . . h+i+j+k+M.M.l+l+m+n+o+                                ",
"                        . . . p+q+r+s+t+u+v+w+x+y+. . . . . . . . . . . R z+A+l+l+B+B+l+l+C+D+E+                                ",
"                          . F+G+H+I+J+K+L+M+N+. . . . . . . . . . . . . R O+P+Q+l+R+S+T+U+V+W+.                                 ",
"                          . X+Y+Z+`+ @.@+@@@#@$@%@. . . . . . . . . . . . &@*@=@-@;@>@,@'@)@. .                                 ",
"                          . !@~@{@]@^@/@(@_@:@<@[@}@|@. . . . . . . . 1@/.2@3@4@5@6@7@8@9@0@. .                                 ",
"                              a@b@c@d@e@f@g@h@i@j@k@l@%.. m@m@m@m@m@. /.n@o@p@q@r@s@t@u@v@!.. .                                 ",
"                                w@x@y@z@A@B@C@D@E@F@G@H@H@I@J@I@H@H@K@L@M@N@O@P@Q@R@S@T@U@. .                                   ",
"                                V@W@X@Y@Z@`@ #.#+#@###$#$#%#&#*#=#-#;#>#,#'#)#!#~#{#]#^#/#. .                                   ",
"                                (#_#:#<#[#}#|#}#1#2#3#4#5#6#7#8#9#0#a#b#c#d#e#f#}#g#h#i#j#. .                                   ",
"                                  k#l#m#[#n#o#n#f#p#q#r#r#s#t#u#v#r#w#x#x#y#z#f#o#g#A#B#j#                                      ",
"                                    C#D#E#F#G#f#f#H#I#J#K#L#M#L#K#K#N#O#P#Q#g#f#R#S#T#U#                                        ",
"                                      V#W#X#Y#Z#`# $.$+$@$@$@$@$@$@$+$#$$$%$Z#&$*$=$-$;$                                        ",
"                                        >$,$'$)$!$~${$]$^$@$@$@$@$@$/$($_$:$<$[$}$,$|$                                          ",
"                                      >$1$2$3$4$4$5$6$7$]$+$@$@$@$O#8$_$9$0$a$}$b$2$c$d$                                        ",
"                                    e$f$g$h$i$j$j$k$l$m$n$o$p$@$@$q$r$s$t$k$j$u$v$w$x$y$z$                                      ",
"                                  A$B$C$D$E$v$F$G$H$I$J$K$L$M$@$N$O$P$Q$2$H$F$F$R$S$T$U$V$W$                                    ",
"                                X$Y$Z$`$ %.%R$v$2$+%@%#%$%%%&%@$*%=%-%;%>%+%2$R$R$,%'%C$)%!%~%                                  ",
"                                {%]%^%`$ %.%F$2$/%(%_%:%`$<%[%*%}%|%`$1%2%3%4%R$R$,%'%C$C$5%6%                                  ",
"                                7%8%9%0%a%b%c%d%e%f%g%h%i%j%k%l%m%j%n%o%p%q%r%s%,%t%u%v%w%x%y%                                  ",
"                                (#z%A%B%C%D%E%F%G%Z$H%[%I%J%K%p$L%M%N%O%P%Z$Q%R%t%S%T%U%V%W%                                    ",
"                                  X%Y%Z%`% &.&+&+&@&#&$&*%%&*%*%*%*%&&*&=&v%-&;&>&,&'&)&!&                                      ",
"                                      ~&{&]&^&%&$&/&@&+&+&+&(&(&(&(&_&:&@&<&[&}&|&1&2&~&                                        ",
"                                          3&4&5&5&6&7&m%8&9&0&a&a&0&9&8&b&c&d&e&f&g&                                            ",
"                                            h&X%X%z%i&j&k&l&m&n&n&m&l&k&j&o&p&q&r&                                              ",
"                                                  (#(#(#(#s&s&s&s&s&s&(#(#                                                      "};
