/* XPM */
static char * char_im1_xpm[] = {
"64 64 9 1",
" 	c #0C1317",
".	c #161C2E",
"+	c #D5B583",
"@	c #EFE1AB",
"#	c #FFFFFF",
"$	c #977B6B",
"%	c #693D5B",
"&	c #B65555",
"*	c #101620",
"                                                                ",
"                                                                ",
"                                                                ",
"                                                                ",
"                        ..............                          ",
"                      ..................                        ",
"                    .......+@@@@@@@@@.....                      ",
"                   ......##@@@@@@@@@@@@....                     ",
"                 .....+@##@@@@@@@@@@@@@@....                    ",
"                .....@@##@@@@@@@@@@@@@@@@@...                   ",
"                ...+@@###@@@@@@@@@@@@@@@@@@...                  ",
"               ....+@####@@@@@@@@@@@@@@@@@#....                 ",
"              ....++@######@@@@@@@@@@@@@@@##...                 ",
"              ...++@@##@###@##@@@#@@@@@#@@###...                ",
"              ...++@@##@##@@##@@@##@@@@#@@###.+..               ",
"             ....++@@##@##@@##@@###@@@##@@@@#@+..               ",
"             ...+++@@@#@@@@@@#@@###@@@##@@@@@@+...              ",
"            ....+++@@@@@@@@@@@@@@@@@@@#@@@@@@@@...              ",
"            ..$.+++@@@@@+@@@@@@@@@@@@@@@@@@@@@@....             ",
"           ...$.+++@@@@@+@@@@@@@@@@@@@@@@@@@@@@+...             ",
"           ...$$+++@@@@@+@@@@@@@@@@@@@@@@+@@@@@+...             ",
"          ....$$+++@+@@@+@@@@@@@@@+@@@@@@+@@@@@@...             ",
"          ....$$+++++@@@@@@@@@@@@@+@@@@@@+@@@@@@@...            ",
"          ....$$+++++@@@@@@@@@@@@@+@@@@@@+@@@@@@@...            ",
"         ....$$$+++++@@@+@@@@@@@@@+@@@@@@@@@@@@@++..            ",
"         ....$$$$+++++@@+@@@@@@@@@+@@@@@@+@@@+@@++...           ",
"        ....++$$$$+$+++++@@@@@@@@+++@@@@@+@@@+@+++....          ",
"       ....++++$$$+$+++++@+@@@@@@++++@@@+++@@++++$$...          ",
"   ......@@@+++$$$$$++++++++++@@@++++++++++++++$+$$+...         ",
"   .....@@@@++++$$$$$++++++++++++++++++++++++++$$$+++...        ",
"   ..@@@@@@@@++++++$$$$+++++++++++++$++.++++++$$$+++++....      ",
"   ..@@@@@@@@@+++++++++++++$+$++++++$$$..$$$+++++++++@@......   ",
"   ...@@@@@++.+@++++++++++$$+$++$$$$$$...$$$+++++++++@@@@@@..   ",
"    ...@@+++..@@++++++++++$$+++++++$$$....++++++++..++@@@@...   ",
"    ...++++..@@@++.@@+++++$++++++++++......++++@@++...+@@@..    ",
"     ........@@++..@@@@@+++++++++++++.......+@@@@@++........    ",
"       ....@@@@+...@@@@@+++++@@@@@@@.........@@@@@@@+++....     ",
"         ...@@....@@@@@@+++@@@@@@@@....%%.....@@@@@@@@....      ",
"          ........@@@@@+++@@@@@@......%%%%%..............       ",
"           ...........+++@@@@@.......%%%%%%%............        ",
"            ........................%%%&&%%%%..........         ",
"           .......................%%%%&&&%%%%...........        ",
"          ....$$$...............%%%%%&&&&&%%%%....++$$...       ",
"          ...$$$++...%%%%%%%%%%%%%%&&&&&&&&&%%...++++$$..       ",
"          ..$$$++++...%%&&%%%&&&&&&&&&&&&&&%%...+++++$$..       ",
"          ..$$$++++...%&&&%&&&&&&&&&&&&&&&%%....+++++$$..       ",
"          ..$$$++++...%%%%%%%%%%%%%%%%%%%%%......+++$$$..       ",
"          ...$$$++........%%%%%%%%%%%%%%%.........$$$$..        ",
"           ...$$$............................. .........        ",
"            .................................    ......         ",
"              .... *.......*********........                    ",
"                ****......***********......****                 ",
"              *******.....***********.....*******               ",
"             ********.....************....********              ",
"            **********...*************...**********             ",
"            **********...*************...**********             ",
"            *********....*************....*********             ",
"            ***************************************             ",
"             *************************************              ",
"              ***********************************               ",
"                *******************************                 ",
"                   *************************                    ",
"                        ***************                         ",
"                                                                "};
