/* XPM */
static char * sortie_ouverte_xpm[] = {
"63 64 650 2",
"  	c None",
". 	c #FAF8F1",
"+ 	c #F6F2E4",
"@ 	c #F3EDDA",
"# 	c #F2ECD9",
"$ 	c #F2EBD9",
"% 	c #F1E9D8",
"& 	c #EDE2CB",
"* 	c #E6D4BA",
"= 	c #E7D7BB",
"- 	c #EDE2C6",
"; 	c #F2ECD8",
"> 	c #F4EFDF",
", 	c #F9F7EE",
"' 	c #F9F7EF",
") 	c #FCFAF6",
"! 	c #FAF7F0",
"~ 	c #F5F0E2",
"{ 	c #F1EAD8",
"] 	c #F1E9D7",
"^ 	c #E7D6C1",
"/ 	c #E7D7BE",
"( 	c #F1E9D5",
"_ 	c #F4EFDE",
": 	c #F9F6ED",
"< 	c #FBF9F3",
"[ 	c #FCFBF7",
"} 	c #FFFFFE",
"| 	c #FAF7F1",
"1 	c #F6F1E3",
"2 	c #EFE4D4",
"3 	c #F1E6D5",
"4 	c #F0E4D3",
"5 	c #F0E6D5",
"6 	c #FEFDFC",
"7 	c #FFFEFE",
"8 	c #FFFFFF",
"9 	c #FAF8F0",
"0 	c #EFE5D4",
"a 	c #F2E8D6",
"b 	c #F5EEDB",
"c 	c #F5EDDA",
"d 	c #F1E5D4",
"e 	c #FCFAF5",
"f 	c #F8F4EE",
"g 	c #F5EDDF",
"h 	c #F1EDD6",
"i 	c #E4EAC9",
"j 	c #E7EBCC",
"k 	c #F3EDD9",
"l 	c #F3EADA",
"m 	c #F8F4EB",
"n 	c #F9F8EF",
"o 	c #E6EED0",
"p 	c #E3EAC8",
"q 	c #DFE9C3",
"r 	c #E7ECCE",
"s 	c #FAF6ED",
"t 	c #F9F6EF",
"u 	c #F9F6F0",
"v 	c #FEFEFD",
"w 	c #FBF9F5",
"x 	c #FBF7F1",
"y 	c #F3F7E9",
"z 	c #F4F6E9",
"A 	c #F1EEDB",
"B 	c #EEF4E0",
"C 	c #F5F7EB",
"D 	c #FBF8F1",
"E 	c #F9F5EF",
"F 	c #FAF8F2",
"G 	c #FFFEFD",
"H 	c #FBFAF4",
"I 	c #F2F6E7",
"J 	c #F7F7ED",
"K 	c #F6F7EC",
"L 	c #F2F7E7",
"M 	c #F6F7ED",
"N 	c #FBF9F2",
"O 	c #FEFDFB",
"P 	c #FDFEFC",
"Q 	c #F8F9F1",
"R 	c #F8F8EF",
"S 	c #F8F8EE",
"T 	c #F4F8EB",
"U 	c #FDFDFA",
"V 	c #FAFAF3",
"W 	c #F4F7EA",
"X 	c #F2F7E8",
"Y 	c #F5F7EA",
"Z 	c #FDFDFB",
"` 	c #F8F7EE",
" .	c #FCFDF9",
"..	c #F7F9EF",
"+.	c #F5F8EC",
"@.	c #FDFEFD",
"#.	c #FCFEFB",
"$.	c #FEFEFC",
"%.	c #C99F6E",
"&.	c #E2C8A4",
"*.	c #F2E7DD",
"=.	c #D9B880",
"-.	c #EADAB1",
";.	c #F4EAD5",
">.	c #DDBD89",
",.	c #D9B881",
"'.	c #E0C98F",
").	c #E2D7AB",
"!.	c #F2EBD6",
"~.	c #E1CA90",
"{.	c #DEBF8C",
"].	c #DFC18C",
"^.	c #E1CA92",
"/.	c #C5C273",
"(.	c #B2CE73",
"_.	c #FEFFFE",
":.	c #F2EAD6",
"<.	c #DDC88F",
"[.	c #E2CB91",
"}.	c #DFC08D",
"|.	c #D8BA8A",
"1.	c #DFC38E",
"2.	c #E2CB93",
"3.	c #C7C477",
"4.	c #94B93B",
"5.	c #CAD390",
"6.	c #D9E6B8",
"7.	c #C1C26F",
"8.	c #DEC892",
"9.	c #D7B889",
"0.	c #E1CB92",
"a.	c #C8C478",
"b.	c #95BA3D",
"c.	c #C0C16D",
"d.	c #E8D8B2",
"e.	c #DEE7BE",
"f.	c #94BA3C",
"g.	c #C3C372",
"h.	c #DEC891",
"i.	c #E1CB91",
"j.	c #D8B57F",
"k.	c #DFC28D",
"l.	c #E0C994",
"m.	c #B8C166",
"n.	c #91B938",
"o.	c #D3C583",
"p.	c #E8D8B1",
"q.	c #F4EBD7",
"r.	c #C3C271",
"s.	c #8CB933",
"t.	c #CDC57E",
"u.	c #DEC992",
"v.	c #E1C98F",
"w.	c #DCBB88",
"x.	c #DBB982",
"y.	c #B1C05D",
"z.	c #D8C78A",
"A.	c #B0BF5C",
"B.	c #9BBA43",
"C.	c #DED6A6",
"D.	c #F1EAD5",
"E.	c #B2BF5D",
"F.	c #99BB42",
"G.	c #D2C684",
"H.	c #DAC78C",
"I.	c #D4AF7B",
"J.	c #D6B684",
"K.	c #96BA3E",
"L.	c #93BA3B",
"M.	c #A8BE53",
"N.	c #ADBE58",
"O.	c #AFCD70",
"P.	c #D4E5B3",
"Q.	c #9ABB43",
"R.	c #D3C685",
"S.	c #D3C684",
"T.	c #9DBC47",
"U.	c #E0C88F",
"V.	c #D0AB7C",
"W.	c #DBBA83",
"X.	c #C0C26F",
"Y.	c #DAC78D",
"Z.	c #A2BD4C",
"`.	c #A7BE52",
" +	c #D7C688",
".+	c #D2D498",
"++	c #E4E8C5",
"@+	c #D0C581",
"#+	c #DCC88F",
"$+	c #C4C373",
"%+	c #C3C373",
"&+	c #DFC992",
"*+	c #E0C88E",
"=+	c #D9B683",
"-+	c #E1CA91",
";+	c #D8C78B",
">+	c #9BBB45",
",+	c #BFC26E",
"'+	c #C2C371",
")+	c #D7C789",
"!+	c #A3BD4E",
"~+	c #A6BC4F",
"{+	c #E4D8AE",
"]+	c #BEC16B",
"^+	c #A4BD4E",
"/+	c #DFC893",
"(+	c #C5C374",
"_+	c #DEC991",
":+	c #E2CA91",
"<+	c #D5B07C",
"[+	c #DAB882",
"}+	c #DBC88E",
"|+	c #CCC57C",
"1+	c #D2C683",
"2+	c #9BBB44",
"3+	c #B3C060",
"4+	c #E3D7AC",
"5+	c #DAE6BA",
"6+	c #8EB834",
"7+	c #89B82F",
"8+	c #D9C78B",
"9+	c #D4AE7A",
"0+	c #D9B781",
"a+	c #E2CA92",
"b+	c #C9C479",
"c+	c #E1C994",
"d+	c #9DBC46",
"e+	c #DAC68B",
"f+	c #E7D8B1",
"g+	c #DDE6BD",
"h+	c #C6C375",
"i+	c #D6C789",
"j+	c #97BB3F",
"k+	c #CFC580",
"l+	c #A1BD4B",
"m+	c #DDC991",
"n+	c #D9B780",
"o+	c #CAC47A",
"p+	c #ACBF58",
"q+	c #98BB41",
"r+	c #D9C88C",
"s+	c #DBC38D",
"t+	c #E2CDAC",
"u+	c #F2E8D5",
"v+	c #DDC68F",
"w+	c #BEC26C",
"x+	c #8AB830",
"y+	c #98BB40",
"z+	c #B7C165",
"A+	c #DDC890",
"B+	c #DFC892",
"C+	c #D3AD7A",
"D+	c #C9C47A",
"E+	c #BFC26D",
"F+	c #97BB40",
"G+	c #B5C063",
"H+	c #C8C477",
"I+	c #DAC88C",
"J+	c #DCC48F",
"K+	c #D6B887",
"L+	c #E5D5AF",
"M+	c #D7BA89",
"N+	c #DCC78F",
"O+	c #C5C375",
"P+	c #B6C163",
"Q+	c #B8C165",
"R+	c #D3AC79",
"S+	c #9CBC46",
"T+	c #AABE55",
"U+	c #ADBF58",
"V+	c #D5C687",
"W+	c #DFC993",
"X+	c #DAC18B",
"Y+	c #D6B888",
"Z+	c #DBC48C",
"`+	c #DAC18C",
" @	c #D5B787",
".@	c #DDC58F",
"+@	c #DAC88D",
"@@	c #92BA3A",
"#@	c #A6BE51",
"$@	c #D6C788",
"%@	c #AFBF5B",
"&@	c #DDC990",
"*@	c #E0CA91",
"=@	c #9EBC48",
"-@	c #88B82E",
";@	c #96BA3F",
">@	c #A6BD51",
",@	c #CFAC7A",
"'@	c #DAC28B",
")@	c #DDC88E",
"!@	c #E7D9B1",
"~@	c #D7BB86",
"{@	c #DAC68C",
"]@	c #C5C475",
"^@	c #D4C685",
"/@	c #D2AB78",
"(@	c #CEC57E",
"_@	c #CBC47B",
":@	c #B5C062",
"<@	c #D4C686",
"[@	c #CFAC7B",
"}@	c #DCC68D",
"|@	c #E2CDA8",
"1@	c #DAC18D",
"2@	c #D8BB8B",
"3@	c #DEC791",
"4@	c #CBC57B",
"5@	c #9CBB45",
"6@	c #D3AD79",
"7@	c #C1C370",
"8@	c #D9C78C",
"9@	c #AEBF5A",
"0@	c #A5BD50",
"a@	c #D9C18A",
"b@	c #DDC790",
"c@	c #D2B37F",
"d@	c #DDC5A2",
"e@	c #EBDCCB",
"f@	c #D5B883",
"g@	c #D9C08C",
"h@	c #D1B17F",
"i@	c #DCC68E",
"j@	c #DDC891",
"k@	c #CBC57C",
"l@	c #90B938",
"m@	c #B6C063",
"n@	c #CEA675",
"o@	c #BDC26B",
"p@	c #B4C060",
"q@	c #D5C787",
"r@	c #D9C18B",
"s@	c #DFC790",
"t@	c #D7BC88",
"u@	c #E7D8B0",
"v@	c #EEE1D1",
"w@	c #CBA276",
"x@	c #D6BA85",
"y@	c #D0AF7D",
"z@	c #8DB934",
"A@	c #CFA978",
"B@	c #C89F70",
"C@	c #E0C993",
"D@	c #86B72C",
"E@	c #D1C682",
"F@	c #C9A072",
"G@	c #CFAB79",
"H@	c #DFCB92",
"I@	c #E2CC92",
"J@	c #E3CD91",
"K@	c #E0CD99",
"L@	c #F4ECDA",
"M@	c #E4D3AA",
"N@	c #D7B687",
"O@	c #DCC089",
"P@	c #DEC890",
"Q@	c #C89D6F",
"R@	c #D0AD7C",
"S@	c #BAC167",
"T@	c #BBC269",
"U@	c #B0BF5D",
"V@	c #CDC57D",
"W@	c #91BA39",
"X@	c #BDC26C",
"Y@	c #E0C68D",
"Z@	c #CCA373",
"`@	c #BF8C62",
" #	c #DDCA8D",
".#	c #B7C164",
"+#	c #9FBC49",
"@#	c #C6996C",
"##	c #D9B882",
"$#	c #E0CB91",
"%#	c #E2CC91",
"&#	c #DFCC97",
"*#	c #F4EDDA",
"=#	c #E4D3A9",
"-#	c #DABC89",
";#	c #E2C890",
">#	c #DFCA91",
",#	c #C89E70",
"'#	c #DAC38C",
")#	c #D8C88A",
"!#	c #E0C78D",
"~#	c #CFA473",
"{#	c #D4AD7A",
"]#	c #D9C88B",
"^#	c #D0BB80",
"/#	c #D1AB81",
"(#	c #E0C38E",
"_#	c #E0CC98",
":#	c #E5D5AB",
"<#	c #DFC98F",
"[#	c #DEC990",
"}#	c #C99E70",
"|#	c #BEC26D",
"1#	c #A9BE55",
"2#	c #E1C78E",
"3#	c #CDA271",
"4#	c #DECA8D",
"5#	c #ABBE56",
"6#	c #9FBC48",
"7#	c #BDC36B",
"8#	c #DDC291",
"9#	c #D4B086",
"0#	c #F4EDDB",
"a#	c #DFCA8F",
"b#	c #E4CE93",
"c#	c #B8C265",
"d#	c #D0C681",
"e#	c #ADBF59",
"f#	c #A8BE54",
"g#	c #A2BD4D",
"h#	c #E1C78F",
"i#	c #CB9F70",
"j#	c #BF8D63",
"k#	c #C08E63",
"l#	c #E3CB93",
"m#	c #B6C164",
"n#	c #A1BD4C",
"o#	c #DBC18E",
"p#	c #E5D6AC",
"q#	c #E0CA90",
"r#	c #D3AC78",
"s#	c #95BA3E",
"t#	c #C6C475",
"u#	c #D5C686",
"v#	c #CCA070",
"w#	c #C19066",
"x#	c #C08E64",
"y#	c #C9C579",
"z#	c #DCC18F",
"A#	c #E0CC99",
"B#	c #F4EEDC",
"C#	c #DBBA89",
"D#	c #CDA67A",
"E#	c #DBC88D",
"F#	c #9CBC45",
"G#	c #CEC57F",
"H#	c #C29267",
"I#	c #DBC28F",
"J#	c #CCA276",
"K#	c #DAB982",
"L#	c #FBF8F2",
"M#	c #DCBC8B",
"N#	c #D4B287",
"O#	c #DDC691",
"P#	c #B9C267",
"Q#	c #DFC78D",
"R#	c #C29167",
"S#	c #DDCA8C",
"T#	c #B4C061",
"U#	c #C8C578",
"V#	c #D6BA86",
"W#	c #C6996B",
"X#	c #F4EEDD",
"Y#	c #E6D6AC",
"Z#	c #DCBD8B",
"`#	c #DCC58F",
" $	c #B9C167",
".$	c #A0BC49",
"+$	c #B9C166",
"@$	c #D4AE7F",
"#$	c #C08F65",
"$$	c #D1AB83",
"%$	c #DDBD8C",
"&$	c #E4CC95",
"*$	c #CAC47B",
"=$	c #87B72D",
"-$	c #CBA074",
";$	c #DFC28C",
">$	c #E3CD92",
",$	c #F5EEDD",
"'$	c #E6D6AD",
")$	c #BAC267",
"!$	c #BAC268",
"~$	c #D9B689",
"{$	c #CFA881",
"]$	c #D1AB84",
"^$	c #DDBE8C",
"/$	c #DCCA8C",
"($	c #D7C78A",
"_$	c #B2C05F",
":$	c #DBC18F",
"<$	c #E0C48E",
"[$	c #E2CD92",
"}$	c #E0CD9A",
"|$	c #DBBB89",
"1$	c #D5B288",
"2$	c #DFC592",
"3$	c #90B937",
"4$	c #E1C88F",
"5$	c #D0A878",
"6$	c #D0A983",
"7$	c #DEBE8C",
"8$	c #DECA8E",
"9$	c #CAC57A",
"0$	c #F5EFDF",
"a$	c #CDA479",
"b$	c #CFC381",
"c$	c #B5C162",
"d$	c #B9C266",
"e$	c #E1C890",
"f$	c #CCA171",
"g$	c #C19166",
"h$	c #D1AA83",
"i$	c #A7BE51",
"j$	c #E2D1A2",
"k$	c #DFCA90",
"l$	c #DAC28C",
"m$	c #B1C05E",
"n$	c #E2CB92",
"o$	c #D6B284",
"p$	c #C3956A",
"q$	c #D0A982",
"r$	c #DDBD8B",
"s$	c #CDC67E",
"t$	c #D2AC81",
"u$	c #DBBB85",
"v$	c #DFCB91",
"w$	c #C79C6E",
"x$	c #D8C18A",
"y$	c #DCC98F",
"z$	c #B2C05E",
"A$	c #E3CB92",
"B$	c #D8B587",
"C$	c #CFA882",
"D$	c #C69870",
"E$	c #D8B582",
"F$	c #9EBC47",
"G$	c #BAC168",
"H$	c #8FB936",
"I$	c #D7BB88",
"J$	c #C6986B",
"K$	c #DBBB84",
"L$	c #E5CF93",
"M$	c #D2AE82",
"N$	c #DCC38E",
"O$	c #D0C682",
"P$	c #D1C683",
"Q$	c #DFC88D",
"R$	c #D3AC7D",
"S$	c #C69970",
"T$	c #BE8D66",
"U$	c #D5B07D",
"V$	c #A4BD4F",
"W$	c #A5BD4F",
"X$	c #8CB833",
"Y$	c #A9BE54",
"Z$	c #D7B986",
"`$	c #D4B187",
" %	c #DAC48D",
".%	c #D4C786",
"+%	c #CAC57B",
"@%	c #E3C991",
"#%	c #CDA272",
"$%	c #BF8F66",
"%%	c #C2946E",
"&%	c #DDBC8A",
"*%	c #97BA3F",
"=%	c #CCC67D",
"-%	c #D6B986",
";%	c #D9B784",
">%	c #D4B186",
",%	c #ABBF57",
"'%	c #CEA372",
")%	c #BA8B68",
"!%	c #CFA77F",
"~%	c #DEBF8D",
"{%	c #DBCA8B",
"]%	c #D6B885",
"^%	c #DECA91",
"/%	c #D5AF7B",
"(%	c #C99F71",
"_%	c #DBC48E",
":%	c #91B939",
"<%	c #CEA473",
"[%	c #E3CB94",
"}%	c #82B727",
"|%	c #C5976B",
"1%	c #D4B682",
"2%	c #D3AF7B",
"3%	c #C89B6E",
"4%	c #BEC36C",
"5%	c #CCA27A",
"6%	c #D6B27E",
"7%	c #DAC98A",
"8%	c #D0B77E",
"9%	c #C4966A",
"0%	c #C89C6F",
"a%	c #CFBF7F",
"b%	c #C4C374",
"c%	c #E4CB94",
"d%	c #D7B384",
"e%	c #C4956A",
"f%	c #D6B17D",
"g%	c #C0C36F",
"h%	c #E0C893",
"i%	c #87B82D",
"j%	c #A7BF52",
"k%	c #D3B982",
"l%	c #CDBD7C",
"m%	c #E0CA8F",
"n%	c #D9B789",
"o%	c #D1AC83",
"p%	c #C18F64",
"q%	c #DBC98B",
"r%	c #92BA39",
"s%	c #A5BE50",
"t%	c #A0BC4A",
"u%	c #D9B889",
"v%	c #D0AA83",
"w%	c #C29066",
"x%	c #DACA89",
"y%	c #DCC88E",
"z%	c #E0CB90",
"A%	c #DAB889",
"B%	c #B3C05F",
"C%	c #D0AB83",
"D%	c #A3BD4D",
"E%	c #C6C476",
"F%	c #9ABB44",
"G%	c #DFC08E",
"H%	c #DBCA8C",
"I%	c #CCC57D",
"J%	c #D2AB84",
"K%	c #DFC18E",
"L%	c #BBC169",
"M%	c #D2AA79",
"N%	c #CFAA81",
"O%	c #DECA8F",
"P%	c #E3CA92",
"Q%	c #CFA674",
"R%	c #C5956B",
"S%	c #D7B37F",
"T%	c #E0C98E",
"U%	c #D0A675",
"V%	c #C18E63",
"W%	c #D8B37F",
"X%	c #D9C989",
"Y%	c #BCC26A",
"Z%	c #D0A775",
"`%	c #C18E64",
" &	c #D7B47F",
".&	c #E2CB94",
"+&	c #D6B07C",
"@&	c #C39266",
"#&	c #D5B480",
"$&	c #D0AA78",
"                                        . . . . + @ # $ % & * = - ; @ @ @ > , . . . '                                         ",
"                                        ) . . . ! ~ { { % ] ^ / ( @ @ @ _ : . . . < [                                         ",
"                                        } ) . . | ! 1 @ $ 2 3 4 5 # @ _ : . . . < 6 7                                         ",
"                                        8 7 ) | | . 9 ~ 0 a b c d 5 _ : . . . < 6 8                                           ",
"                                        8 8 7 e . . . f g h i j k l m . . . < 6 8 8 }                                         ",
"                                        8 8 8 7 ) . ! | n o p q r s t u . < 6 8 8 8 v                                         ",
"                                        8 8 8 8 7 w x . y z 1 A B C D E F 6 8 8 8 8 G                                         ",
"                                        8 8 8 8 8 7 H C I J ! , K L M N O 8 8 8 8 8 8                                         ",
"                                        8 8 8 8 8 8 P Q K C R S C K T U 8 8 8 8 8 8                                           ",
"                                        8 8 8 8 8 8 8 } V W X y Y R Z 8 8 8 8 8 8 8                                           ",
"                                        8 8 8 8 8 8 8 8 7 ) C ` <  .8 8 8 8 8 8 8 8                                           ",
"                                        8 8 8 8 8 8 8 8 8 7 ..+.O 8 8 8 8 8 8 8 8 8                                           ",
"                                        8 8 8 8 8 8 8 8 8 8 @.#.8 8 8 8 8 8 8 8 8 8 $.                                        ",
"                                    %.&.8 8 8 8 8 8 8 8 8 8 8 8 8 8 8 8 8 8 8 8 8 8 *.                                        ",
"                                    =.-.8 8 8 8 8 8 8 8 8 8 8 8 8 8 8 8 8 8 8 8 8 8 ;.>.                                      ",
"                                  ,.'.).8 8 8 8 8 8 8 8 8 8 8 8 8 8 8 8 8 8 8 8 8 8 !.~.{.                                    ",
"                                ].^./.(._.8 8 8 8 8 8 8 8 8 8 8 8 8 8 8 8 8 8 8 8 8 :.<.[.}.                                  ",
"                            |.1.2.3.4.5.8 8 8 8 8 8 8 8 8 8 8 8 8 8 8 8 8 8 8 8 8 8 6.7.8.[.}.                                ",
"                          9.1.0.a.b.c.d.8 8 8 8 8 8 8 8 8 8 8 8 8 8 8 8 8 8 8 8 8 8 e.f.g.h.i.j.                              ",
"                          k.0.l.m.n.o.p.8 8 8 8 8 8 8 8 8 8 8 8 8 8 8 8 8 8 8 8 8 8 q.r.s.t.u.v.w.                            ",
"                        x.2.a.y.z.A.B.C.8 8 8 8 8 8 8 8 8 8 8 8 8 8 8 8 8 8 8 8 8 8 D.E.F.G.H.h.~.I.                          ",
"                      J.^.a.K.L.M.z.N.O.8 8 8 8 8 8 8 8 8 8 8 8 8 8 8 8 8 8 8 8 8 8 P.Q.R.S.T.g.u.U.V.                        ",
"                    W.0.a.b.X.Y.Z.`. +.+8 8 8 8 8 8 8 8 8 8 8 8 8 8 8 8 8 8 8 8 8 8 ++@+#+h.$+b.%+&+*+=+                      ",
"                  W.-+;+>+,+G.'+)+!+~+{+8 8 8 8 8 8 8 8 8 8 8 8 8 8 8 8 8 8 8 8 8 8 q.]+^+)+/+(+b.%+_+:+<+                    ",
"                [+-+z.}+|+1+2+3+z.!+~+4+8 8 8 8 8 8 8 8 8 8 8 8 8 8 8 8 8 8 8 8 8 8 5+6+7+^+8+(+b.$+z.#+U.9+                  ",
"              0+a+b+Q.b+c+^+d+z.Z.`.e+f+8 8 8 8 8 8 8 8 8 8 8 8 8 8 8 8 8 8 8 8 8 8 g+h+i+M.d+j+(+k+l+z.m+'.9+                ",
"            n+^.o+j+p+q+b+a.j+f.`.r+s+t+8 8 8 8 8 8 8 8 8 8 8 8 8 8 8 8 8 8 8 8 8 8 u+v+8.w+x+(+@+y+z+A+B+_+*+C+              ",
"          [+-+D+j+E+R.F+G+B+H+y.I+J+K+L+8 8 8 8 8 8 8 8 8 8 8 8 8 8 8 8 8 8 8 8 8 8 4 M+N+m.O+@+b.P+B+#+Q+b+u.U.R+            ",
"        W.-+8+S+T+S.j+T.R.U+V+W+X+Y+Z+f+8 8 8 8 8 8 8 8 8 8 8 8 8 8 8 8 8 8 8 8 8 8 !.`+ @.@+@T.@@#@$@%@d+G.h.&@*+R+          ",
"      0+*@h.h.|+F.j+=@-@;@>@+@X+,@'@)@!@8 8 8 8 8 8 8 8 8 8 8 8 8 8 8 8 8 8 8 8 8 8 :.<.~@K+{@]@z.>@;@d+^@B+z.Y._+*+/@        ",
"    0+*@#+(@A+8._@:@<@F+!+I+X+[@X+&@}@|@8 8 8 8 8 8 8 8 8 8 8 8 8 8 8 8 8 8 8 8 8 8 !.<.m+1@2@3@h.;+y.S.B+4@5@b+B+m+*+6       ",
"  [+-+A+P+n.7@/+8@#+9@0@r+X+[@a@m+b@c@d@8 8 8 8 8 8 8 8 8 8 8 8 8 8 8 8 8 8 8 8 8 8 e@f@_+A+g@h@i@h.j@B+k@l@m@1+Q+#+_+*+R+    ",
"n@*@A+m@F.o@j+p@^+z.q@+@X+[@r@m+A+s@t@u@8 8 8 8 8 8 8 8 8 8 8 8 8 8 8 8 8 8 8 8 8 8 v@w@x@A+&@x@y@i@h.k@q+z@;@T.L.y.#+&@*+A   ",
"B@s@$+S+k+C@w+D@P+)+E@N+F@G@H@A+A+I@J@K@L@8 8 8 8 8 8 8 8 8 8 8 8 8 8 8 8 8 8 8 8 D M@N@O@A+A+P@Q@R@c+S@T@(+-@U@V@W@X@&+Y@Z   ",
"`@<+ #8+B+@+F..#)++#%@A+~@@###$#A+A+I@%#&#*#8 8 8 8 8 8 8 8 8 8 8 8 8 8 8 8 8 8 D =#-#;#>#A+i./@,#'#X@g.$@S+A.8+>@0@)#!#~###  ",
"    {#-+8@T.:@)+!+-@w+l.]#^#/#(#>#A+A+I@%#_#*#8 8 8 8 8 8 8 8 8 8 8 8 8 8 8 8 D :#<#:+[#A+~./@}#s+Q+l@f.|#1#^+>@^+]#2#3###    ",
"    `@C+4#g.$@Z.T+$+K.5#6#7#8#9#(#>#A+A+I@%#_#0#8 8 8 8 8 8 8 8 8 8 8 8 8 8 D :#a#b#[#A+i.R+Q@s+c#F+d#e#b.Y.f#g#r+h#i#j#      ",
"      k#R+l#m#f.R.C@O+7+n#V+E@o#9#(#>#A+A+I@%#_#0#8 8 8 8 8 8 8 8 8 8 8 8 D p#a#b#[#A+q#r#,#'#z+F.k+g.s#t#G.u#]#2#v#w#        ",
"        x#C+ #f#Z.z.B+o+$@p@L.y#z#9#k.>#A+A+I@%#A#B#8 8 8 8 8 8 8 8 8 8 N :#a#b#[#A+i.C#D#'@E#9@F#$@'+a.G#F.d#;#v#H#          ",
"          `@{#4#M.Z.)+B+3+>+m.K.y#I#J#K#$#A+A+I@%#_#B#8 8 8 8 8 8 8 8 L#p#<#b#[#A+i.M#N#O#m.M.;+9@T.)+k+F+P#Q#v#H#            ",
"            R#C#S#,+<@T#Q.E@B+|#j+U#V#W#K#>#A+A+I@%#K@X#8 8 8 8 8 8 < Y#a#b#[#A+i.Z#N#`# $F..$M.8+e#;@b.+$l#@$#$              ",
"              $$%$&$*$=$*$B+h.z.2+p+_+V#-$;$>#A+A+>$%#A#,$8 8 8 8 N '$<#b#[#A+0.Z#N#`#)$j+t.8+Z.M.8+y.!$a+~${$                ",
"                ]$^$/$`.^+8+8+!+`.($_$y#:$9#<$>#A+A+[$%#}$,$8 8 < '$<#b#[#A+q#|$1$2$b+3$$+B+h.z.F.U+C@4$5${$                  ",
"                  6$7$8$>@+#+##@H.%@j+F+9$:$9#<$>#A+A+>$%#}$0$< '$<#b#[#A+i.C+a$b$c$$@3+2+G.C@k+K.d$e$f$g$                    ",
"                    h$7$ #>@i$z.%@T.V+w+K.4@o#9#<$>#A+A+>$%#}$j$k$b#[#A+*@9+Q@l$z.Q.Z.$@m$F#g.F..#n$o$p$                      ",
"                      q$r$i.A+A.F.q@g.G.w+L.s$o#t$u$v$A+A+>$%#k$b#[#A+i.<+w$x$y$8.+#L.1+B+z$=$Q+A$B$C$                        ",
"                        D$E$-+`.F$Y..#F#G$H$b+C@I$J$K$>#A+A+>$L$[#A+i.%$M$N$4@5#_$Q.O$/+P$<@P$Q$R$S$                          ",
"                          T$U$ #V$W$8+y.X$$+)+Y$4@Z$W#K$v$A+A+A+A+0.^$`$ %.%q@F$X$t.l.@+F.+%@%#%$%                            ",
"                            %%&% #W$0@)+)+d#1+T@*%=%-%J$K$>#A+A+q#;%>%`#$@=@m#z.Z.,%t.F.P+Q$'%)%                              ",
"                              !%~%{%'+H.E@q+=@:@D@b.|+]%W#K$^%$#/%(%_%A+h.5#7+m.$@l+:%P+4$<%`@                                ",
"                                6${.[%1+y+:@m$}%1#G$!+m+]%|%1%2%3%`+&@#+.#Q.$+q+.#<@4%v.'%k#                                  ",
"                                  5%6%7%V$`.z.y..$1+1+#+=%8%9%0%a%d#B+b+3$b%C@G#6#b+c%d%e%                                    ",
"                                    k#f%/$g#`.g%L.a.h%m.i%j%k%l%j+H$a.h.:@F.d#8.}+m%n%o%                                      ",
"                                      p%f%q%V$r%(+B+Q+q+a.^+s%F#T#w+K.a.h.3+t%}+:+u%v%                                        ",
"                                        w%&%x%D+h. $y+t.y%z.+#m$A+E#E+K.b+A+3.z%A%v%                                          ",
"                                          h$~%[%_@-@b+V+y.C@:@H+8+%@B+B%W@r+l#A%C%                                            ",
"                                            ]$~%7%Z.f#z.T@p+F#D%e#E%G.F%B%i.A%C%                                              ",
"                                              h$G%H%Z.0@P+T#R.I%A.z+F%_$i.A%o%                                                ",
"                                                J%K%7%L%j+$+A+;+.#q+]@Q$M%N%                                                  ",
"                                                  h$}.O%D%T+#+S.>+c$P%Q%x#                                                    ",
"                                                    R%S%7%n#i$d+m$T%U%x#                                                      ",
"                                                      V%W%X%T#Y%'.Z%x#                                                        ",
"                                                        `% &.&P%+&                                                            ",
"                                                          @&#&$&                                                              "};
