/* XPM */
static char * Mur_xpm[] = {
"64 64 337 2",
"  	c #C3AE68",
". 	c #C4AF68",
"+ 	c #C5B069",
"@ 	c #B29D60",
"# 	c #90784E",
"$ 	c #856B46",
"% 	c #947948",
"& 	c #9D8149",
"* 	c #9D814A",
"= 	c #9C804A",
"- 	c #9C8049",
"; 	c #A68C51",
"> 	c #BAA361",
", 	c #C5B16A",
"' 	c #BBA461",
") 	c #9C7F49",
"! 	c #C4AF69",
"~ 	c #A58B51",
"{ 	c #9A7E48",
"] 	c #BBA562",
"^ 	c #BCA562",
"/ 	c #A78D52",
"( 	c #9E824A",
"_ 	c #9F824A",
": 	c #977C49",
"< 	c #896F47",
"[ 	c #816846",
"} 	c #806746",
"| 	c #876D47",
"1 	c #967B49",
"2 	c #C4B069",
"3 	c #B59F60",
"4 	c #957D4F",
"5 	c #8E7449",
"6 	c #9E844E",
"7 	c #A48A4F",
"8 	c #9F844C",
"9 	c #9B7F49",
"0 	c #C2AD67",
"a 	c #BDA764",
"b 	c #B39B5B",
"c 	c #A4894F",
"d 	c #A68B51",
"e 	c #C3AF68",
"f 	c #BCA662",
"g 	c #AD9457",
"h 	c #A58A50",
"i 	c #A58B50",
"j 	c #AB9255",
"k 	c #B69E5E",
"l 	c #B49C5C",
"m 	c #A48A50",
"n 	c #9B7F4A",
"o 	c #987C49",
"p 	c #987D49",
"q 	c #977B49",
"r 	c #8F7649",
"s 	c #7E6949",
"t 	c #786449",
"u 	c #7E6647",
"v 	c #836946",
"w 	c #866C47",
"x 	c #8D7348",
"y 	c #B8A261",
"z 	c #A08650",
"A 	c #B1995B",
"B 	c #9B7E48",
"C 	c #BAA461",
"D 	c #BDA763",
"E 	c #AE9558",
"F 	c #9F834C",
"G 	c #C1AB66",
"H 	c #B9A360",
"I 	c #B59D5D",
"J 	c #8D7248",
"K 	c #8E7348",
"L 	c #997D49",
"M 	c #876E47",
"N 	c #886E47",
"O 	c #8A6F46",
"P 	c #675E4F",
"Q 	c #655C4F",
"R 	c #776449",
"S 	c #876D46",
"T 	c #927748",
"U 	c #B29A5B",
"V 	c #A78C51",
"W 	c #BEA864",
"X 	c #AE9658",
"Y 	c #AE9557",
"Z 	c #9E834B",
"` 	c #A3884F",
" .	c #BCA663",
"..	c #856B47",
"+.	c #856C47",
"@.	c #917648",
"#.	c #917748",
"$.	c #866D47",
"%.	c #7D6647",
"&.	c #786448",
"*.	c #6B5E4D",
"=.	c #585653",
"-.	c #5B5852",
";.	c #74624A",
">.	c #A48950",
",.	c #A3894F",
"'.	c #9F834B",
").	c #A78C52",
"!.	c #BDA663",
"~.	c #C2AC67",
"{.	c #C1AC67",
"].	c #907648",
"^.	c #826946",
"/.	c #836A46",
"(.	c #575653",
"_.	c #515455",
":.	c #5C5852",
"<.	c #75634A",
"[.	c #846A46",
"}.	c #8D7347",
"|.	c #806846",
"1.	c #826846",
"2.	c #5B5752",
"3.	c #665C4F",
"4.	c #866D46",
"5.	c #957A48",
"6.	c #A88D52",
"7.	c #C6B16A",
"8.	c #9D8049",
"9.	c #7E6747",
"0.	c #B39B5C",
"a.	c #866C46",
"b.	c #9D804A",
"c.	c #9E814A",
"d.	c #907548",
"e.	c #856C46",
"f.	c #A0844C",
"g.	c #A0854F",
"h.	c #8F764A",
"i.	c #B29B5C",
"j.	c #9F854F",
"k.	c #967A49",
"l.	c #AB9155",
"m.	c #B59E5D",
"n.	c #A78D51",
"o.	c #8C7248",
"p.	c #BBA462",
"q.	c #C3AD68",
"r.	c #9A7D48",
"s.	c #A0854C",
"t.	c #9B804A",
"u.	c #AF9658",
"v.	c #AD9456",
"w.	c #AA9154",
"x.	c #9B7F48",
"y.	c #7F6646",
"z.	c #C1AC66",
"A.	c #B2995A",
"B.	c #A2874E",
"C.	c #AD9557",
"D.	c #AC9356",
"E.	c #B49D5D",
"F.	c #8C7247",
"G.	c #8A7047",
"H.	c #927848",
"I.	c #AA9054",
"J.	c #8B7147",
"K.	c #AC9256",
"L.	c #C0AB66",
"M.	c #A2864E",
"N.	c #C5B06A",
"O.	c #967A48",
"P.	c #8C7147",
"Q.	c #B1995A",
"R.	c #997D48",
"S.	c #967B48",
"T.	c #AD9356",
"U.	c #9A7E49",
"V.	c #B39C5C",
"W.	c #9E824B",
"X.	c #A99054",
"Y.	c #B39A5B",
"Z.	c #A98F54",
"`.	c #7F6746",
" +	c #C6B26A",
".+	c #886F47",
"++	c #A3884E",
"@+	c #937849",
"#+	c #8C7148",
"$+	c #B69E5D",
"%+	c #B9A260",
"&+	c #BFA964",
"*+	c #A99055",
"=+	c #B0995C",
"-+	c #B39E60",
";+	c #B49E61",
">+	c #B6A061",
",+	c #B9A361",
"'+	c #9B8353",
")+	c #977E4F",
"!+	c #A28851",
"~+	c #9D834F",
"{+	c #AC955B",
"]+	c #BAA464",
"^+	c #B59F61",
"/+	c #7D6444",
"(+	c #7D6445",
"_+	c #A2884F",
":+	c #9A7F4B",
"<+	c #897048",
"[+	c #8E754C",
"}+	c #9F8856",
"|+	c #BAA564",
"1+	c #91794F",
"2+	c #7E6545",
"3+	c #957A49",
"4+	c #B7A05E",
"5+	c #AF985B",
"6+	c #947B4E",
"7+	c #7F6645",
"8+	c #8D744C",
"9+	c #A8915A",
"0+	c #8E754D",
"a+	c #B59D5C",
"b+	c #AD965B",
"c+	c #8F764D",
"d+	c #806745",
"e+	c #846C48",
"f+	c #8D754C",
"g+	c #856C48",
"h+	c #9F844B",
"i+	c #9E844F",
"j+	c #897049",
"k+	c #816745",
"l+	c #836B48",
"m+	c #7A6649",
"n+	c #816746",
"o+	c #997E49",
"p+	c #8D7247",
"q+	c #88734B",
"r+	c #6A6150",
"s+	c #A2874F",
"t+	c #997E4A",
"u+	c #9D834E",
"v+	c #AC945A",
"w+	c #B49C5B",
"x+	c #9E8149",
"y+	c #9B7E49",
"z+	c #85724C",
"A+	c #605C53",
"B+	c #5A5752",
"C+	c #645C4F",
"D+	c #836945",
"E+	c #AE975B",
"F+	c #947B4D",
"G+	c #886F48",
"H+	c #A1854C",
"I+	c #8E7447",
"J+	c #907447",
"K+	c #7A674A",
"L+	c #5D5952",
"M+	c #74634A",
"N+	c #615B50",
"O+	c #6E604C",
"P+	c #76634A",
"Q+	c #7D6646",
"R+	c #776348",
"S+	c #86724C",
"T+	c #7B684A",
"U+	c #6E5F4C",
"V+	c #625A50",
"W+	c #6F604C",
"X+	c #625B50",
"Y+	c #8A7149",
"Z+	c #896E47",
"`+	c #886D46",
" @	c #796448",
".@	c #665C4E",
"+@	c #5E5A52",
"@@	c #625D52",
"#@	c #796449",
"$@	c #826845",
"%@	c #9F834A",
"&@	c #AE965A",
"*@	c #B39D60",
"=@	c #B7A162",
"-@	c #BFAA66",
";@	c #B9A261",
">@	c #A18750",
",@	c #957948",
"'@	c #766349",
")@	c #6D5F4C",
"!@	c #5A5753",
"~@	c #505356",
"{@	c #4F5256",
"]@	c #525455",
"^@	c #585753",
"/@	c #796549",
"(@	c #7F6747",
"_@	c #6B5F4D",
":@	c #836845",
"<@	c #8E7347",
"[@	c #9B7F4B",
"}@	c #9D8654",
"|@	c #C5B169",
"1@	c #967D4F",
"2@	c #5A5852",
"3@	c #545554",
"4@	c #4F5356",
"5@	c #595753",
"6@	c #6C5F4D",
"7@	c #8E7549",
"8@	c #7C684A",
"9@	c #7C6547",
"0@	c #7E6444",
"a@	c #C1AB67",
"b@	c #B7A262",
"c@	c #B29C5F",
"d@	c #B49E60",
"e@	c #A69059",
"f@	c #8C744C",
"g@	c #535555",
"h@	c #515355",
"i@	c #675D4E",
"j@	c #7A6548",
"k@	c #7D684A",
"l@	c #665D4F",
"m@	c #645B4F",
"n@	c #776349",
"o@	c #91794E",
"p@	c #B8A363",
"q@	c #9E8655",
"r@	c #8F774D",
"s@	c #505355",
"t@	c #927A4F",
"u@	c #7E6544",
"v@	c #5E5951",
"  . + @ # $ % & * = - ; > + , ' ; ) ) ; > ! .     . ! > ~ { { ; ] ^ / - = * ( ( ( ( * * ( ( ( ( * * ( ( _ : < [ [ } } | 1 ( * * ",
". 2 + 3 4 5 6 7 8 ) 9 ; > 0 a b c ) 9 d > ! .     e ! f g h i j k l m - * n o 1 1 p = = p 1 1 p = = p q o r s t u v w x p * * = ",
"! + + y z 6 A b c B B ; C D E c F - 9 ~ > ! .         G ^ H > I j c F * * o J | | K L L K M M K L L K N O s P Q R S T L = * - - ",
"> C C U c V ] W X ~ i Y D C ~ B 9 Z ` g  .! e           ! + + C ~ B ) * * o J ..[ +.@.@.w } } w #.T $.%.&.*.=.-.;.S T L = 8 >.; ",
"; ; ; ,.'.).]   W C > !.~.> i { B ` U D {.              e ! + > i B 9 - * = p ].+.[ +.w ^.} } ^.$.| /.t Q (._.:.<.[.S }.: h b ' ",
"- - - - - c b ' ' D ~.2 ! f g i i g D 2 !                 e !  .g d ; m 8 * ( p x M | w ^.} |.[ } [ 1.t Q 2.-.3.t [ } 4.5.6.^ 7.",
"= = = = * 8 c ; ; Y !.! ! G  .H H  .{.!                       G f C ] l m 8.* = p 1 1 @.w } } } [ [ [ 9.R ;.;.t 9.[ } 4.5.6.^ 7.",
"* * * * * * - ) 9 ~ > ! .   ! ! ! !                             ! 0 W 0.>.- - * * ( ( p x | | a.^.} } v S < < S v ^.w }.: h b ' ",
"* * * * * * b.- ) d > ! .   e . . e                           . ! D Y c F b.- - * c.( = p 1 1 d.e.} } w @.o o @.w w @.L = 8 >.; ",
"* * * * * * b.- ) ; > 2 ! e                                   . ! H i B 9 F >.m 8 * * * * f.h g.h.| | x p _ _ 1 | +.@.L = * - - ",
"( c.* * * * - ) 9 d C + 2 !                                   . ! H i { B c 0.l m - * - - c l i.j.5.k.p = ( ( 1 M [ +.x p * * = ",
"k.o n * * 8 m ).; l.m.C >  .G                                 e !  .g i i Y W ^ ).9 ) Z ` E W ] n.- * c.* * * o x +.[ | 1 ( * * ",
"$.o.: * 8.m l ] p.I l.~ i g  .! e                                 G  .H H D   p.; B B ` U a q.C ; ) 8.* * * - 9 p ]...$.k.( * * ",
"| J o * 8.>.0.W   C ~ r.r.i H ! .                                   ! ! ! 0 D I l.~ i g D + 2  .g ` Z - - F >.h s.o o.o.o * * * ",
"1 p t.* * F c u.W ' d r.r.i H ! .                                   e ! !  .v.w.I C >  .{.! e {.D U ` x.x.c 0.l h 9 : o n * * * ",
"q p t.* * - 9 ; C D Y i i g  .! e                                     ! 2 H h h > + 2 !       ! 2 D g i h Y W ^ / - * ( * * * * ",
"N x o * * - ) ; > ~.!.H H  .G                                         ! + > i h > 2 ! e         ! {. .H H D   ] ).- * * ( * * * ",
"y.| k.( * = - ; C + 2 ! ! !                                           z. .A.B.i > 2 !               ! ! ! 0 D b c - * n : o = ( ",
"y.| k.( * = - ; ' + ! . . e                                       e ! f v.B.* d C + !               e ! ! !.C.` '.* * : o.o.p ( ",
"| x o * * - - c b D {.                                            e ! ^ D.h i l.E. .z.              e ! + > i B ) * * : F.G.H.q ",
"1 o t.* - - b.'.` g  .! e                                             G ^ H > E.I.D.^ ! e           ! + + C ~ B 9 - - 9 o T J.M ",
"* * - F >.>.F 9 B i H ! .                                               ! 2 +  .D.K.] ! e         G ^ H > m.l.d ; ; ; h s.1 | y.",
"8.- ) c 0.0.c B { i H ! .                                               e ! ! z.^ ] L.        e ! ^ D.h i j m.C > C C b h 5.$.y.",
"; d ~ Y a a Y i ~ Y !.! .                                                       ! !           e ! f v.M.b.i > N.N.N., ] V O.P.S ",
"> > >  .{.{. .> C D ~.!                                                         e e               z. .Q.M.m H + + N., ' ; R.S.5.",
"2 2 2 ! ! ! ! ~.D C > f G               e e                                                       ! 2  .v.T.^ {. .> C m.l.d ; V ",
"2 2 2 2 ! ! 2 !.Y ~ i g  .! e           ! !                                                         ! z.f  .{. .g i ~ l.m.C C C ",
"C > > > > D 0 C d { { i H ! .       ! z.^ ] L.                                                  e . . ! ! 2 + > i r.r.~ ' , N.2 ",
"V V ; d ~ Y W ] ; B { i H ! .     ! 2  .D.K.] ! e                                               ! ! ! ! . ! + C ~ r.r.~ ' , N.2 ",
"5.q U.- ) c 0.V.m W.` g  .!     ! {. .l X.D.^ ! e                                           ! {. .H H  .{.~.D I l.~ ~ l.m.C > > ",
"S F.: * 8.F >.c '.c Y.D {.    ! 2  .D.Z.l  .z.                                            ! 2 D g i i Y a D g w.I ' ' m.l.d ; ; ",
"`.M 1 ( ( * - ) - ).] N.!     z.!.l X.D. .2 !                                             {.D U ` x.x.c 0.b ` i C  + +' d 9 ) - ",
"} M 1 ( ( * * - - ).p.N.!   ! ^ v.I.l  .{.!                                           e !  .g ` Z - - F >.,.W.; '  + +p.; ) - = ",
"} w @.q 1 o t.* - c b D ~.2 + H h h > + !                                       e . . ! ! H i x.- * * - ) 9 - >.b p.p.b c - * * ",
"} ^.w N M x o * * '.` Y D , , > i h > 2 !                                       ! ! ! ! ! H h x.- * - - ) - = 8 >.).).c 8 * * ( ",
".+$.^.y.y.| 1 ( * - ) ` b p.p.U ++i > 2 ! e                                   G  .H H  .{. .C.` '.F c ).).>.8 b.- - - 8.* = o 1 ",
"o #.w y.y.| 1 ( * * - '.c ).).` ( ~ C + 2 !                               e !  .g i i g  .0 D U ` ` U p.p.b >.- - = = * ( p x | ",
": @+#+| | x o * * * * * - - - W.` j I > H ^ G                             . ! H i r.r.i H + 7.C d d C  + +p.).- = * * = p ].+.} ",
"N J.@+1 1 o t.* * * * * b.- - c 0.$+l.m m D.f ! e                         . ! H i r.r.i H + 7.C d d C  + +p.).- = * c.o J +.^.} ",
"y.| 1 ( ( * * * * * * * * - ) ; ] a g >.>.D.f ! e                         e !  .g i i g  .0 D U ` ` U C C U c - * * c.o x +.^.[ ",
"y.| 1 ( ( * * * * * * * * - 9 d C 0  .%+%+^ G                                 G  .H H  .{. .C.` '.'.` d d ` F * * * * = L @.w } ",
"| x o * * * * * b.b.* * * '.` g  .! ! ! ! !                                     ! ! ! ! ! H i B 9 '.` d d ` F * * * * = L @.w } ",
"1 o n * * * * * - - * * - c b D {.  . . . e                                     e . . ! ! H i { B ` U C C U c - * * c.o x +.^.[ ",
"( c.* * * * * 8 m >.F ) 9 ; C + !                                                     e !  .g i i g D , 7.p.).- = * c.o x +.^.[ ",
"* * * * * b.- m l 0.c B B d > 2 !                                                         G  .H H  .{.+ , p.).- = * * = L @.w } ",
"* * * * b.- 9 ).^ &+u.d d Y !.! .                                                   e . . ! ! ! ! ! e {.D b c - b.* * = L @.$.} ",
"* * * * - 9 9 ; ] . W ' ' D ~.!                                                     ! ! ! ! ! . . ! !  .g ` '.* * * ( L K w ^.[ ",
"* * * f.h / ; *+=+-+;+>+,+' > f G                                                 G  .H H  .G   . ! + > i x.- ( ( = p @.w } [ [ ",
"( * * h l f ^ =+'+# # )+!+V d g  .! e                                         e !  .g i i g f ! ! + + > ~ x.8.( ( p x w ^.[ [ [ ",
"1 k.O.~+{+]+  ^+# /+(+a.5.- ) d > 2 !     . . e                             e ! + > i r.r.~ > 0 D > C m.K._+:+1 q @.w } [ [ [ [ ",
"N N N <+[+}+|+>+1+2+2+4.3+8.- ; C + !   ! ! ! !                             ! + + C ~ r.r.d p.W Y i ~ D.4+5+6+S | w ^.[ [ [ [ } ",
"} } } 7+2+8+9+9+0+[ $ x p c.* c b D 0 {. .H H  .G                         G  .> C m.l.~ ~ j k b c x.x.m a+b+c+7+d+[ [ [ [ /.$..+",
"[ [ [ } d+e+f+f+g+w @.L = ( c.h+,.Y W a Y i i g  .! e                 e !  .g i ~ l.m.' ' m.j ,.Z - - 8 h i+j+y.k+1.[ [ |.| T o ",
"[ [ [ [ 1.[ d+7+} N : * L 1 1 : U.c V.0.c B { i H ! .                 . ! H i { B ; ]  + +' d 9 8.* * * * o x l+m+t 9.[ [ | T o ",
"[ [ [ [ 1.1.n+} } .+o o+K | | p+: 8 m >.F 9 B i H ! .                 . ! H i { x.V ]  + +p.; - & ( ( * * - U.q+r+Q t 1.[ /.$..+",
"[ [ [ 9.t t 9.1.[ | T #.w y.y.| 1 * * - b.F c Y  .!                   . ! D Y s+t+u+v+>+> w+h 9 o 1 1 L b.x+y+z+A+B+;.1.[ } } } ",
"[ 1.1.t C+Q t D+D+[.| $.^.} y.| 1 c.* - - >.0.a {.                      ! 0 W E+F+G+f+)+!+i H+p x | N I+U.y+J+K+L+-.M+1.[ } } } ",
"[ 1.1.t Q N+O+P+P+t u [ [ ^.w x p ( ( * * m V.W 0 ! ! .               G  .' f b+c+2+2+$ d.q : T S Q+R+K+S+S+T+U+V+Q t /.| N N N ",
"[ [ [ 9.t W+X+-.:.3.t [ [ w @.p = * ( c.* 8 c Y D + + !             !  .Y V 6.i+Y+y.7+1.e.N Z+`+[. @.@+@@@@@L+V+W+#@9.$.@.q q 1 ",
"[ [ [ [ $@ @3.=._.:.P+$@[ N : %@( = L q 1 : U.s+&@-+*@=@-@. ! ! ! + + ;@>@,@5.].w } } [ [ %.R <.'@)@!@~@{@]@^@3./@$@[ N : _ ( ( ",
"[ [ |.[ [ (@#@_@=.-.P+:@[ N : %@%@L <@N | x p [@F+# # }@=@+ + + + |@7.>+1@a.4.a.v [ } [ [ t Q :.L+2@3@~@4@5@6@/@(@[ [ N : _ ( * ",
"[ v $..+.+| [.#@3.X+W+t u $.@.q : 7@8@'@9@w #.@.e.2+0@# *@a@b@c@c@*@d@e@f@7+} } [ /.| | [.t 3.5@g@h@_.3@B+i@j@D+1.[ |.w @.p = * ",
"} $.@.: : T S `. @W+X+Q t /.| N Z+k@l@m@n@/.| w ^.7+2+o@d@p@q@r@# o@o@8+e+} } } } $.T T | 9.#@6@!@~@s@-.)@j@(@1.[ [ [ ^.w x p ( ",
"} N q %@%@: N [ D+P+-.-.<.1.[ [ [ ;.-.-.<.1.[ } [ } 7+t@^+d@# /+u@7+7+7+n+[ [ [ } .+o o .+[ D+R v@~@~@v@R D+1.[ [ [ [ } } M 1 ( "};
