/* XPM */
static char * player_xpm[] = {
"64 64 632 2",
"  	c #DAC384",
". 	c #D1B77B",
"+ 	c #C9AC74",
"@ 	c #C7AA72",
"# 	c #CBAF76",
"$ 	c #D4BD7F",
"% 	c #DAC183",
"& 	c #DAB479",
"* 	c #D9B076",
"= 	c #DABC7F",
"- 	c #D7BF81",
"; 	c #BB9966",
"> 	c #9C6944",
", 	c #955A39",
"' 	c #A3764D",
") 	c #C6AC74",
"! 	c #D9BA7E",
"~ 	c #D88D5E",
"{ 	c #D6794F",
"] 	c #D9AC74",
"^ 	c #D0BB85",
"/ 	c #BCA77A",
"( 	c #987758",
"_ 	c #76352E",
": 	c #75342E",
"< 	c #814736",
"[ 	c #B88C5E",
"} 	c #D99B68",
"| 	c #D8633F",
"1 	c #D54327",
"2 	c #D7895B",
"3 	c #D9AE75",
"4 	c #DABD80",
"5 	c #D7C083",
"6 	c #B3A17F",
"7 	c #827777",
"8 	c #685C6B",
"9 	c #614F63",
"0 	c #5E5065",
"a 	c #704D5A",
"b 	c #AB533C",
"c 	c #D65434",
"d 	c #D7371E",
"e 	c #D4250C",
"f 	c #D54428",
"g 	c #CFB981",
"h 	c #B9A77E",
"i 	c #8D8279",
"j 	c #565674",
"k 	c #585876",
"l 	c #595A78",
"m 	c #575C7C",
"n 	c #63546E",
"o 	c #8D3E45",
"p 	c #B32A20",
"q 	c #CA1E09",
"r 	c #D71700",
"s 	c #D81700",
"t 	c #D75837",
"u 	c #D9A871",
"v 	c #B3A27E",
"w 	c #807678",
"x 	c #635F76",
"y 	c #5A5875",
"z 	c #5A5876",
"A 	c #595976",
"B 	c #5C5774",
"C 	c #62546D",
"D 	c #7C4755",
"E 	c #B12B21",
"F 	c #D51900",
"G 	c #D61800",
"H 	c #D55D3B",
"I 	c #D8A971",
"J 	c #E0C189",
"K 	c #E2B88D",
"L 	c #BD9988",
"M 	c #947583",
"N 	c #8F7282",
"O 	c #71637B",
"P 	c #585774",
"Q 	c #575674",
"R 	c #595876",
"S 	c #525A7A",
"T 	c #5D526D",
"U 	c #883C44",
"V 	c #A52E29",
"W 	c #A92E28",
"X 	c #B36447",
"Y 	c #CEAA73",
"Z 	c #DBC285",
"` 	c #E9B98F",
" .	c #F5AC99",
"..	c #F0A499",
"+.	c #E89E98",
"@.	c #EBA099",
"#.	c #DC9895",
"$.	c #997785",
"%.	c #5F5A76",
"&.	c #5A5976",
"*.	c #5D5874",
"=.	c #66536C",
"-.	c #6B5066",
";.	c #6A5066",
">.	c #89726D",
",.	c #C3AD7D",
"'.	c #EAB691",
").	c #FCA99C",
"!.	c #FFACA0",
"~.	c #FFAFA3",
"{.	c #FFB2A4",
"].	c #FFABA1",
"^.	c #CD9193",
"/.	c #957584",
"(.	c #6B6079",
"_.	c #5F5A77",
":.	c #806C80",
"<.	c #9B7A89",
"[.	c #9B7C8A",
"}.	c #8A7486",
"|.	c #68647E",
"1.	c #7E787B",
"2.	c #C0AE81",
"3.	c #EAB790",
"4.	c #FAAA9B",
"5.	c #FAA79C",
"6.	c #F8A59A",
"7.	c #F7A59A",
"8.	c #F6A49B",
"9.	c #DD9995",
"0.	c #917383",
"a.	c #6F627A",
"b.	c #B18289",
"c.	c #EA9E97",
"d.	c #F2A39A",
"e.	c #D29393",
"f.	c #856E80",
"g.	c #7F7678",
"h.	c #C0AD80",
"i.	c #ECB993",
"j.	c #F5A699",
"k.	c #C6847B",
"l.	c #8F6059",
"m.	c #815651",
"n.	c #93625B",
"o.	c #D08A7F",
"p.	c #F5A49A",
"q.	c #C89094",
"r.	c #A77B81",
"s.	c #C1786A",
"t.	c #E28368",
"u.	c #FF9F8A",
"v.	c #E99F99",
"w.	c #8F7383",
"x.	c #7F7677",
"y.	c #C0AD7F",
"z.	c #ECBC95",
"A.	c #F0A495",
"B.	c #92625B",
"C.	c #291B1A",
"D.	c #0E0909",
"E.	c #2F1F1D",
"F.	c #9A6760",
"G.	c #FDABA3",
"H.	c #E7978B",
"I.	c #C6694A",
"J.	c #BD5A33",
"K.	c #E38870",
"L.	c #DD9996",
"M.	c #8B7183",
"N.	c #EDBA94",
"O.	c #F4A598",
"P.	c #B87B73",
"Q.	c #724C47",
"R.	c #60403C",
"S.	c #754E49",
"T.	c #BC7D75",
"U.	c #F9A69B",
"V.	c #FFAFA4",
"W.	c #FBA395",
"X.	c #E18369",
"Y.	c #C87055",
"Z.	c #BC7C74",
"`.	c #A37C87",
" +	c #74667D",
".+	c #C1AD80",
"++	c #EAB890",
"@+	c #F8AA9A",
"#+	c #F4A298",
"$+	c #EC9D93",
"%+	c #EA9C92",
"&+	c #F4A398",
"*+	c #FCA89D",
"=+	c #FDA99E",
"-+	c #FCA79C",
";+	c #FEA698",
">+	c #E29890",
",+	c #977581",
"'+	c #625C77",
")+	c #807778",
"!+	c #C1AE80",
"~+	c #DBC384",
"{+	c #E2BD8A",
"]+	c #ECB791",
"^+	c #F8B19B",
"/+	c #FFAEA2",
"(+	c #FFAEA3",
"_+	c #FFADA2",
":+	c #FFAB9F",
"<+	c #FBA89D",
"[+	c #FEA99E",
"}+	c #ECA29D",
"|+	c #917484",
"1+	c #545574",
"2+	c #555574",
"3+	c #7C7378",
"4+	c #DDC186",
"5+	c #EBB691",
"6+	c #F9AB9B",
"7+	c #8E7282",
"8+	c #5A5975",
"9+	c #5A5874",
"0+	c #887D79",
"a+	c #C3AF80",
"b+	c #E1BE89",
"c+	c #EBB791",
"d+	c #F5AE98",
"e+	c #FFAA9E",
"f+	c #FFAB9E",
"g+	c #FFAD9F",
"h+	c #F7A69C",
"i+	c #CC9091",
"j+	c #9C7985",
"k+	c #72647B",
"l+	c #6D6776",
"m+	c #968A7A",
"n+	c #B7A57F",
"o+	c #D0BA82",
"p+	c #ECB691",
"q+	c #F8AB9B",
"r+	c #F5A59B",
"s+	c #F0A29A",
"t+	c #F4A49B",
"u+	c #DF9A96",
"v+	c #967684",
"w+	c #605B76",
"x+	c #595775",
"y+	c #7A7278",
"z+	c #BBA97F",
"A+	c #D9C284",
"B+	c #E1C18B",
"C+	c #E8B78F",
"D+	c #C49A8B",
"E+	c #A47E87",
"F+	c #987784",
"G+	c #71647B",
"H+	c #787077",
"I+	c #BFAC80",
"J+	c #D8C184",
"K+	c #CCB682",
"L+	c #9E8F7C",
"M+	c #635E76",
"N+	c #5E5A76",
"O+	c #5D5A76",
"P+	c #5B5975",
"Q+	c #5C5A75",
"R+	c #625E76",
"S+	c #897E79",
"T+	c #DCC585",
"U+	c #DDC686",
"V+	c #DBC585",
"W+	c #9F917B",
"X+	c #7B7377",
"Y+	c #585874",
"Z+	c #555674",
"`+	c #585775",
" @	c #9B8D7B",
".@	c #D0BB82",
"+@	c #DBC484",
"@@	c #E6D18B",
"#@	c #EBD78F",
"$@	c #E3CD89",
"%@	c #D5BF83",
"&@	c #A8987D",
"*@	c #656176",
"=@	c #776F77",
"-@	c #BAA77F",
";@	c #D2BC83",
">@	c #D4BE83",
",@	c #DBC485",
"'@	c #E0CB88",
")@	c #F0DC92",
"!@	c #F6E496",
"~@	c #E8D38D",
"{@	c #DEC786",
"]@	c #D7C184",
"^@	c #A7987C",
"/@	c #5E5B75",
"(@	c #736C77",
"_@	c #CFB982",
":@	c #AC9B7D",
"<@	c #988B7B",
"[@	c #9A8C7B",
"}@	c #998B7B",
"|@	c #B5A37E",
"1@	c #E5CF8B",
"2@	c #F0DC91",
"3@	c #FAE898",
"4@	c #FBE998",
"5@	c #E8D48D",
"6@	c #DCC685",
"7@	c #EDD990",
"8@	c #E2CC89",
"9@	c #CAB581",
"0@	c #9E907B",
"a@	c #686376",
"b@	c #8B8079",
"c@	c #D1BC83",
"d@	c #90847A",
"e@	c #CEB982",
"f@	c #D3BD83",
"g@	c #DFC887",
"h@	c #DEC887",
"i@	c #E1CB88",
"j@	c #EFDC91",
"k@	c #F8E697",
"l@	c #F1DE93",
"m@	c #E9D48E",
"n@	c #E2CD89",
"o@	c #EFDB91",
"p@	c #F2DF93",
"q@	c #E4CF8A",
"r@	c #BEAB80",
"s@	c #5D5A75",
"t@	c #6B6576",
"u@	c #C0AC80",
"v@	c #AE9D7D",
"w@	c #95887A",
"x@	c #96897A",
"y@	c #8A7E79",
"z@	c #676276",
"A@	c #706A77",
"B@	c #8F837A",
"C@	c #988A7B",
"D@	c #E4CE8A",
"E@	c #EEDB91",
"F@	c #F0DD92",
"G@	c #FAE998",
"H@	c #F7E496",
"I@	c #CFB67E",
"J@	c #B69B70",
"K@	c #D4BC82",
"L@	c #ECD98F",
"M@	c #DEC886",
"N@	c #D6C083",
"O@	c #AB9A7D",
"P@	c #B9A67F",
"Q@	c #BCA97F",
"R@	c #857B79",
"S@	c #C4B081",
"T@	c #D5BF84",
"U@	c #E0CA88",
"V@	c #EFDB90",
"W@	c #FAE897",
"X@	c #FBE999",
"Y@	c #F9E797",
"Z@	c #E1CC89",
"`@	c #B99E71",
" #	c #A88B67",
".#	c #D2BA80",
"+#	c #F1DE92",
"@#	c #E6D28C",
"##	c #AA997D",
"$#	c #756D77",
"%#	c #BBA87F",
"&#	c #AF9E7D",
"*#	c #877C79",
"=#	c #706976",
"-#	c #8F847A",
";#	c #B8A985",
">#	c #EDDA92",
",#	c #FAEC97",
"'#	c #FFEC99",
")#	c #FFED9A",
"!#	c #F5E295",
"~#	c #CEB57D",
"{#	c #B1946C",
"]#	c #C2A876",
"^#	c #AB9B7D",
"/#	c #666176",
"(#	c #6F6877",
"_#	c #C9B581",
":#	c #CEB882",
"<#	c #565574",
"[#	c #5D5B76",
"}#	c #938B82",
"|#	c #D2C48F",
"1#	c #DFD092",
"2#	c #DDCE92",
"3#	c #EFDF97",
"4#	c #F4E194",
"5#	c #C9AF79",
"6#	c #AC8E69",
"7#	c #D0B87F",
"8#	c #E6D38D",
"9#	c #7D7478",
"0#	c #8E8279",
"a#	c #6F6B7A",
"b#	c #857F7E",
"c#	c #8D8680",
"d#	c #C5B88D",
"e#	c #F7E597",
"f#	c #F0DA8F",
"g#	c #E0C987",
"h#	c #DDC987",
"i#	c #AA9A7D",
"j#	c #575574",
"k#	c #525173",
"l#	c #5E5B76",
"m#	c #989083",
"n#	c #D1C38F",
"o#	c #DCCD92",
"p#	c #D9CA91",
"q#	c #D9C68A",
"r#	c #A9997D",
"s#	c #585674",
"t#	c #565474",
"u#	c #6D6979",
"v#	c #807A7D",
"w#	c #847E7F",
"x#	c #8D867F",
"y#	c #BCAA82",
"z#	c #B9A77F",
"A#	c #8C8179",
"B#	c #585675",
"C#	c #686375",
"D#	c #B1A07D",
"E#	c #D8C284",
"F#	c #C3B080",
"G#	c #696376",
"H#	c #B1A07E",
"I#	c #C4B080",
"J#	c #646076",
"K#	c #A1927C",
"L#	c #C9B481",
"M#	c #6E6876",
"N#	c #5B5976",
"O#	c #766E77",
"P#	c #C5B081",
"Q#	c #615D75",
"R#	c #9D8F7B",
"S#	c #C7B381",
"T#	c #CDB882",
"U#	c #B9A780",
"V#	c #908478",
"W#	c #68616D",
"X#	c #4B4A66",
"Y#	c #4E4D69",
"Z#	c #565571",
"`#	c #BDAA7F",
" $	c #D6C085",
".$	c #C4AF7D",
"+$	c #8A7C67",
"@$	c #393851",
"#$	c #353550",
"$$	c #3D3C57",
"%$	c #4F4E6A",
"&$	c #5B5876",
"*$	c #605C75",
"=$	c #D6BF82",
"-$	c #B4A172",
";$	c #887A61",
">$	c #554E50",
",$	c #34344E",
"'$	c #42415C",
")$	c #655F6B",
"!$	c #8E8276",
"~$	c #9E907C",
"{$	c #9C8E7C",
"]$	c #C2AE79",
"^$	c #857861",
"/$	c #34344C",
"($	c #363650",
"_$	c #71675E",
":$	c #B7A477",
"<$	c #D1BB83",
"[$	c #B6A47E",
"}$	c #D5BF82",
"|$	c #B4A273",
"1$	c #8A7C63",
"2$	c #564F52",
"3$	c #2F2F49",
"4$	c #5F5553",
"5$	c #A7936B",
"6$	c #CDB37A",
"7$	c #DBC383",
"8$	c #A0917B",
"9$	c #C2AD79",
"0$	c #837660",
"a$	c #36354C",
"b$	c #33324C",
"c$	c #50474F",
"d$	c #7E6557",
"e$	c #AC8F67",
"f$	c #CDB57C",
"g$	c #797177",
"h$	c #605D76",
"i$	c #A0917C",
"j$	c #D4BE81",
"k$	c #B3A073",
"l$	c #9B8B69",
"m$	c #9D8D6A",
"n$	c #948466",
"o$	c #886D59",
"p$	c #95765B",
"q$	c #B0956B",
"r$	c #C5AC77",
"s$	c #D5BD81",
"t$	c #CCB781",
"u$	c #AC9C7D",
"v$	c #9A8E7F",
"w$	c #A19884",
"x$	c #C0B289",
"y$	c #E1CE8C",
"z$	c #E3CF89",
"A$	c #D3BD81",
"B$	c #D3BC81",
"C$	c #C3AC78",
"D$	c #A08362",
"E$	c #8C6A56",
"F$	c #92725A",
"G$	c #AE936A",
"H$	c #CFB87E",
"I$	c #D5BE83",
"J$	c #DAC68A",
"K$	c #EAD893",
"L$	c #F3E196",
"M$	c #ECD88F",
"N$	c #D9C182",
"O$	c #CAB079",
"P$	c #B4986D",
"Q$	c #97775C",
"R$	c #AA8E67",
"S$	c #C0A775",
"T$	c #D4BC80",
"U$	c #E0CE89",
"V$	c #ECDB8F",
"W$	c #F6E394",
"X$	c #F5E395",
"Y$	c #CFB77D",
"Z$	c #AA8F68",
"`$	c #8F6E58",
" %	c #8E6C57",
".%	c #A68A65",
"+%	c #CAB27A",
"@%	c #D9C283",
"#%	c #E9D58D",
"$%	c #F7E596",
"%%	c #F6E395",
"&%	c #EAD58E",
"*%	c #A48764",
"=%	c #93735A",
"-%	c #C5AD78",
";%	c #E8D38C",
">%	c #E3CD8A",
",%	c #DAC284",
"'%	c #D7C082",
")%	c #D8C083",
"!%	c #A38663",
"~%	c #9E8060",
"{%	c #C3AB76",
"]%	c #E9D48D",
"^%	c #C4AB77",
"/%	c #B59B6E",
"(%	c #B69B6E",
"_%	c #AD9269",
":%	c #95755B",
"<%	c #927159",
"[%	c #A98E67",
"}%	c #C1A875",
"|%	c #D9C183",
"1%	c #AB8F68",
"2%	c #8E6D57",
"3%	c #8D6B56",
"4%	c #906F58",
"5%	c #C9B17A",
"6%	c #DDC786",
"7%	c #EAD68E",
"8%	c #EEDA90",
"9%	c #C3AA76",
"0%	c #B1976C",
"a%	c #BFA574",
"b%	c #BDA473",
"c%	c #B89E70",
"d%	c #B2976C",
"e%	c #BCA372",
"f%	c #D3BB80",
"g%	c #D8C183",
"h%	c #CEB67D",
"i%	c #997A5D",
"j%	c #96775C",
"k%	c #9E8161",
"l%	c #C7AF79",
"m%	c #CBB37B",
"n%	c #A88C66",
"o%	c #AC9169",
"p%	c #F9E798",
"q%	c #B79D6F",
"r%	c #BFA674",
"s%	c #BAA171",
"t%	c #9A7C5E",
"u%	c #9C7E5F",
"v%	c #C8B079",
"w%	c #D4BD81",
"x%	c #C6AD78",
"y%	c #E4CF8B",
"z%	c #A78B66",
"A%	c #D3BC80",
"B%	c #D6BE81",
"C%	c #BEA573",
"D%	c #C8AF79",
"E%	c #F3E093",
"F%	c #E5D08B",
"G%	c #E7D38C",
"H%	c #D2BB7F",
"I%	c #E7D28C",
"J%	c #FAE798",
"K%	c #EBD68E",
"L%	c #D4BD80",
"M%	c #DFC987",
"N%	c #E9D58E",
"O%	c #E0CA87",
"                                                                                                                                ",
"                                      . + @ # $ % & * =                                                                         ",
"                                    - ; > , ' ) ! ~ { ]                                                                         ",
"                                  ^ / ( _ : < [ } | 1 2 3 4                                                                     ",
"                                5 6 7 8 9 0 a b c d e f { 3                                                                     ",
"                              g h i j k l m n o p q r s t u                                                                     ",
"                            5 v w x y y z A B C D E F G H I                                                                     ",
"                          J K L M M N O P Q R S T U V W X Y                                                                     ",
"                        Z `  ...+.@.#.$.%.j y &.*.=.-.;.>.,.                                                                    ",
"                        Z '.).!.~.{.].^./.(._.:.<.[.}.|.1.2.                                                                    ",
"                        Z 3.4.5.6.6.7.8.9.0.a.b.c.d.e.f.g.h.                                                                    ",
"                        Z i.j.k.l.m.n.o.p.q.r.s.t.u.v.w.x.y.                                                                    ",
"                        Z z.A.B.C.D.E.F.p.G.H.I.J.K.L.M.x.y.                                                                    ",
"                        Z N.O.P.Q.R.S.T.U.V.W.X.Y.Z.`. +w .+                                                                    ",
"                        Z ++@+#+$+%+$+&+*+=+-+;+>+,+'+y )+!+                                                                    ",
"                        ~+{+]+^+/+(+_+:+*+<+[+~.}+|+1+2+3+h.                                                                    ",
"                            4+5+6+*+*+*+*+*+<+<+9.7+8+9+0+a+                                                                    ",
"                              b+c+d+*+e+f+g+h+i+j+k+l+m+n+o+                                                                    ",
"                                4+p+q+r+s+t+u+v+w+x+y+z+A+                                                                      ",
"                                  B+C+D+E+`.F+G+j Q H+I+                                                                        ",
"                                A+J+K+L+M+N+O+P+Q+R+S+!+                                                T+U+V+                  ",
"                                5 h.W+X+Y+Z+j `+l+ @z+.@                                              +@@@#@$@                  ",
"                                %@&@*@y y y y y =@-@            J+;@o+o+o+o+>@A+                    ,@'@)@!@~@+@T+{@T+          ",
"                                ]@^@/@y y P+y y (@z+            _@:@<@[@}@[@|@%@                    1@2@3@4@5@6@~@7@8@          ",
"                            A+5 9@0@R+y y y /@a@b@h.    J+c@_@o+-@)+y y y y d@a+.@e@f@A+    6@g@h@i@j@k@l@m@8@n@o@p@q@          ",
"                            J+r@<@H+s@y y y t@0@u@c@    ;@v@w@x@y@z@y y y y A@B@x@C@n+]@    D@E@F@F@G@H@I@J@K@o@L@1@M@          ",
"                            N@O@*@y y y y y (@P@    A+f@Q@R@y y y y y y y y y y y P+w@S@T@U@V@W@X@Y@p@Z@`@ #.#+#@#              ",
"                            N@##R+y y y y y $#%#    f@&#*#a@y y y y y y y y y y y y =#-#;#>#,#'#)#!#~#{#]#5 i@D@h@              ",
"                            N@^#/#y y y y y (#O@_#:#Q@0+y y y y y y y y y y y y y y <#[#}#|#1#2#3#4#5#6#7#l@8#                  ",
"                            N@^#/#y y y y y R+9#0#d@*#t@y y y y y y y y y y y y y y x+P+a#b#b#c#d#e#f#g#i@q@h#                  ",
"                            N@i#x y y y y y y y y y y y y y y y y y y y y y y y y y y y x+j#k#l#m#n#o#p#q#                      ",
"                            N@r#R+y y y y y y y y y y y y y y y y y y y y y y y y y y y x+s#t#y u#v#w#x#y#                      ",
"                            ]@z#A#l+y y y y y y y y y y y y y y y y y y y y y y y y y y y y y y B#<#t#C#D#E#                    ",
"                            A+f@F#C@s@y y y y y y y y y y y y y y y y y y y y y y y y y y y y y x+B#B#G#H#E#                    ",
"                                A+-@0#l+y y y y y y y y y y y y y y y y y y y y y y y y y y y y y y (@w@I+A+                    ",
"                                  >@I#x@Q+y y y y y y y y y y y y y y y y y y y y y y y y y y y y J#K#L#%@                      ",
"                                    J+z#d@M#y N#N#N#N#y y y y y y y y y y y y y y y y y y y O#B@d@}@I+                          ",
"                                    A+%@P#w@P+y y y y y y y y y y y y y y y y y y y y y y Q#R#S#e@T#>@                          ",
"                                        ]@U#V#W#X#X#Y#Z#N#N#N#y y y y y y y y y y y y y (@x@`#A+                                ",
"                                        A+ $.$+$@$#$$$%$y &$y P+P+P+P+P+P+y y y y y y *$ @L#5                                   ",
"                                            =$-$;$>$,$'$X#X#)$!$~${$ @ @y@x y y y P+O#C@`#A+                                    ",
"                                            A+=$]$^$/$,$($($_$:$;@<$c@<$[$y+y y y s@<@L#]@A+                                    ",
"                                                }$|$1$2$3$3$4$5$6$7$    T#:@*#Q#`+s#8$N@                                        ",
"                                                A+5 9$0$a$b$c$d$e$f$    A+>@|@g$P+h$i$;@                                        ",
"                                                    j$k$l$m$n$o$p$q$r$s$    t$u$v$w$x$y$z$                                      ",
"                                                    A+}$A$B$C$D$E$F$G$H$      I$J$K$L$!@M${@                                    ",
"                                                        N$O$P$Q$F$R$S$T$        U$V$W$W@X$M$n@,@                                ",
"                                                        Y$Z$`$ %.%+%@%            6@#%$%3@%%&%T+                                ",
"                                                        Y$*%=%G$-%=$                ;%H@X$M$>%,@                                ",
"                                                ,%'%=$)%+%!%~%{%=$A+                ]%H@E@h@                                    ",
"                                                '%^%/%(%_%:%<%[%}%s$                ~@!@7@T+                                    ",
"                                            ,%|%f$1%2%3%4%=%:%p$R$5%)%,%          6%7%H@8%U+                                    ",
"                                            )%9%1%=%E$E$:%0%a%b%c%d%e%f%        U@#@4#k@7@T+                                    ",
"                                        ,%g%h%0%i%j%:%E$k%l%    m%n%o%Y$      6%]%!@3@p%E@U@,@                                  ",
"                                        =$S$q$q%r%{%s%t%u%v%    w%r$x%s$    U@#@4#p%3@3@H@j@y%                                  ",
"                                        s$/%*%^%|%'%5%1%z%+%            +@{@]%!@3@3@k@H@H@!##@U@V+                              ",
"                                        )%m%r$A%B%C%q$s%D%w%            U@7@!#p%3@3@E%5@F%G%M$o@@@,@                            ",
"                                                H%d%z%v%            ,@h@I%p@k@J%p%%%K%U+  ,@]%E%#%V+                            ",
"                                                '%m%l%L%            i@7@8%I%7@k@4#~@M%      U@1@U@+@                            ",
"                                                                    n@F@j@D@G%p@M$6%                                            ",
"                                                                    U+n@N%2@8%@@O%+@                                            ",
"                                                                        $@F@M${@                                                ",
"                                                                        U+8@U@,@                                                ",
"                                                                                                                                "};
