/* XPM */
static char * sortie2_xpm[] = {
"64 64 55 1",
" 	c #DAC384",
".	c #DAC284",
"+	c #FFFFFF",
"@	c #EFF6E4",
"#	c #F7F2E9",
"$	c #D9C285",
"%	c #F7F3EB",
"&	c #D9C185",
"*	c #BF8E63",
"=	c #FCFBF8",
"-	c #DAC486",
";	c #D8C086",
">	c #BD885F",
",	c #EED696",
"'	c #C59A6A",
")	c #DAC385",
"!	c #C08F63",
"~	c #DDC890",
"{	c #D0AB82",
"]	c #DAC485",
"^	c #DBC588",
"/	c #DBC487",
"(	c #D0A982",
"_	c #7FB624",
":	c #D1AD82",
"<	c #DCC68C",
"[	c #CFA782",
"}	c #D2B083",
"|	c #D2AF83",
"1	c #DCC78D",
"2	c #C8A06E",
"3	c #D8BF86",
"4	c #CFA882",
"5	c #C59B6A",
"6	c #D1AC82",
"7	c #C29466",
"8	c #C08F64",
"9	c #B9AA9C",
"0	c #BE8B61",
"a	c #BD895F",
"b	c #C2B196",
"c	c #C29366",
"d	c #BE8A60",
"e	c #D0AA82",
"f	c #BE8960",
"g	c #C0AF98",
"h	c #BF8D62",
"i	c #C7B593",
"j	c #C5996A",
"k	c #C39667",
"l	c #D1AE82",
"m	c #BF8C61",
"n	c #DBC486",
"o	c #C39668",
"p	c #DBC589",
"             .+++++++++++++++++@@++++++++++++++++#              ",
"             $+++++++++++++++++++++++++++++++++++%              ",
"           .&*+++++++++++++++++++++++++++++++++++=-             ",
"           ;>,++++++++++++++++++++++++++++++++++++')            ",
"          &!,~++++++++++++++++++++++++++++++++++++,{]           ",
"         ^>,~~++++++++++++++++++++++++++++++++++++~,{-          ",
"        />,~~~++++++++++++++++++++++++++++++++++++~~,{-         ",
"       /(,~~~_++++++++++++++++++++++++++++++++++++~~~,:)        ",
"     )<[,~~~__++++++++++++++++++++++++++++++++++++~~~~,})       ",
"    )<[,~~~__~++++++++++++++++++++++++++++++++++++_~~~~,|)      ",
"   ]1[,~~~__~~++++++++++++++++++++++++++++++++++++__~~~~,2)     ",
"  .34,~~~__~~~++++++++++++++++++++++++++++++++++++~__~~~~,5)    ",
"  &[,~~~~__~~~++++++++++++++++++++++++++++++++++++~~__~~~~,6]   ",
" &7,~~~~~~__~~++++++++++++++++++++++++++++++++++++~~__~~~~~,8/  ",
"90,~~~__~~~__~++++++++++++++++++++++++++++++++++++~__~~~~~~~,ab ",
"c,~~~____~~~__++++++++++++++++++++++++++++++++++++__~~~__~~~~,a/",
",~~~__~~__~~~_++++++++++++++++++++++++++++++++++++_~~~~~__~~~~,d",
"~~~__~~~~__~~~++++++++++++++++++++++++++++++++++++~~~~~~~__~~~~,",
"~~__~~~~~~__~~++++++++++++++++++++++++++++++++++++~~_~~~~~__~~~~",
"~~_~~~__~~~__~++++++++++++++++++++++++++++++++++++~___~~~~~__~~~",
"~~~~~__~~~__~~++++++++++++++++++++++++++++++++++++_____~~~__~~~~",
"~~~~__~~~__~~~++++++++++++++++++++++++++++++++++++_~~~__~__~~~_~",
"_~~~__~~__~~~~++++++++++++++++++++++++++++++++++++~~~~~___~~~__~",
"__~~~____~~~~[++++++++++++++++++++++++++++++++++++~~~~~__~~~__~~",
"~__~~~__~~~~[~++++++++++++++++++++++++++++++++++++[~~~__~~~__~~~",
"__~~~~~~~~~[~~++++++++++++++++++++++++++++++++++++~[~~~~~~__~~~~",
"_~~~_~~~~~[~~~++++++++++++++++++++++++++++++++++++~~[~~~~____~~~",
"__~__~~~~>~~~~++++++++++++++++++++++++++++++++++++~~~>~~~_~~__~_",
"____~~~~>~~~~~++++++++++++++++++++++++++++++++++++~~~~[~~~~~~___",
"~__~~~~>~~~~~~++++++++++++++++++++++++++++++++++++~~~~~[~~~~~~_~",
"__~~~~>~~~~~~>++++++++++++++++++++++++++++++++++++~~~~~~[~~~~~~~",
"_~~~~>~~~~~~>~++++++++++++++++++++++++++++++++++++>~~~~~~>~~~~~~",
"~~~~>~~~~~~[~~++++++++++++++++++++++++++++++++++++[>~~~~~~>~~~~~",
"~~~>~~~~~~,~~~++++++++++++++++++++++++++++++++++++~[>~~~~~~>~~~~",
"~~>>~~~~~~~,~~~++++++++++++++++++++++++++++++++++~~[,~~~~~~>>~~~",
"~~~>>,~~~~~~,~~~++++++++++++++++++++++++++++++++~~[,~~~~~,>>~~~~",
"~~~~>>,~~~~~~,~~~++++++++++++++++++++++++++++++~~[,~~~~~,>>~~~__",
"~~~~~[[,~~~~~~,~~~++++++++++++++++++++++++++++~~~,~~~~~,>>~~~___",
"~~~_~~[[,~~~~~~,~~~++++++++++++++++++++++++++~~~,~~~~~,>>~~~__~~",
"____~~~[[,~~~~~~,~~~++++++++++++++++++++++++~~~,~~~~~,>>~~~__~~~",
"___~~~~~[[,~~~~~~,~~~++++++++++++++++++++++~~~,~~~~~,>>~~~__~~~_",
"~_~~~_~~~[[,~~~~~~,~~~++++++++++++++++++++~~~,~~~~~,>>~~~__~~~__",
"~~~~___~~~[[,~~~~~~,~~~++++++++++++++++++~~~,~~~~~,[[~~~~~__~~~~",
"~~~__~__~~~[>,~~~~~~,~~~++++++++++++++++~~~,~~~~~,[[~~~_~~~__~~~",
"~~__~~~__~~~>>,~~~~~~,~~~++++++++++++++~~~,~~~~~,[[~~~___~~~__~~",
"~__~~~~~__~~~>>,~~~~~~,~~~++++++++++++~~~,~~~~~,[[~~~__~__~~~___",
"__~~~~~~~__~~~>>,~~~~~~,~~~++++++++++~~~,~~~~~,[[~~~__~~~__~~~__",
"__~~~~~~__~~~~~[[,~~~~~~,~~~++++++++~~~,~~~~~,[[~~~__~~~~~__~~~~",
"~__~~~~__~~~_~~~[[,~~~~~~,~~~++++++~~~,~~~~~,[[~~~__~~~~~~~__~~~",
"~~__~~__~~~___~~~[[,~~~~~~,~~~++++~~~,~~~~~,>[~~~~~__~~~~~~__~~,",
",~~____~~~__~__~~~[[,~~~~~~,~~~++~~~,~~~~~,>>~~__~~~__~~~~__~~,>",
"[,~~__~~~__~~~__~~~[[,~~~~~~,~~~~~~,~~~~~,>>~~~~__~~~__~~__~~,[a",
"6[,~~~~~__~~~~~__~~~[[,~~~~~~,~~~~,~~~~~,>>~~~~~___~~~____~~,[(&",
".e[,~~~__~~~_~~~__~~~[>,~~~~~~,~~,~~~~~,>>~~~~~~__~~~~~__~~,[e$ ",
"  f[,~~__~~~__~~__~~~~>>,~~~~~~,,~~~~~,[[~~~_~~__~~~~~~~~~,[>$  ",
"   >>,~~__~~~____~~~~~~>>,~~~~~~~~~~~,[[~~~~____~~~~~_~~~,>d&   ",
"   />>,~~__~~~__~~~__~~~>>,~~~~~~~~~,[[~~~~~~__~~~~~__~~,>d&    ",
"    g>[,~~__~~~~~~~~__~~~>>,~~~~~~~,[[~~~__~~~__~~~__~~,>hi     ",
"     .j[,~~__~~~~_~~~__~~~>>,~~~~~,>[~~~~~__~~~__~__~~,>*/ $    ",
"       ([,~~~~~~___~____~~~>>,~~~,>>~~~~~~___~~~___~~,>k]       ",
"       $e[,~~~~__~____~__~~~>>~~,>>~~~~~~__~__~~~_~~,>!-        ",
"         l[,~~__~~~__~~~_~~~~>>~>>~~~~~~__~~~__~~~~,>mn  )      ",
"          6>,~~__~~~__~~~~~~~~>>>~~~~~~__~~~~~__~~,[>/  n       ",
"          )o>,~~__~~~__~~~~__~~>~~__~~~~__~~~~~~~,[[p  n)       "};
