/* XPM */
static char * sortie_xpm[] = {
"64 64 687 2",
"  	c #DAC384",
". 	c #DAC385",
"+ 	c #D8BF81",
"@ 	c #D3B57D",
"# 	c #D2B27D",
"$ 	c #D9C285",
"% 	c #D7BE81",
"& 	c #D6B77E",
"* 	c #DFC68D",
"= 	c #D6B47F",
"- 	c #D2B37C",
"; 	c #D6B57D",
"> 	c #E1C88E",
", 	c #DCC98E",
"' 	c #E0CA90",
") 	c #D8B580",
"! 	c #DBC486",
"~ 	c #D9C184",
"{ 	c #D6B67E",
"] 	c #E2C88F",
"^ 	c #BDC36B",
"/ 	c #9DBC46",
"( 	c #AABE55",
"_ 	c #DCC98C",
": 	c #D9B881",
"< 	c #D5B87F",
"[ 	c #DAC485",
"} 	c #D9C185",
"| 	c #DCBF89",
"1 	c #E2CA91",
"2 	c #BDC26B",
"3 	c #95BA3E",
"4 	c #C6C475",
"5 	c #A4BD4E",
"6 	c #A5BD50",
"7 	c #DDCA8C",
"8 	c #DABA81",
"9 	c #D5B87E",
"0 	c #DCC189",
"a 	c #E4CB93",
"b 	c #CCC57C",
"c 	c #97BB40",
"d 	c #CBC57B",
"e 	c #DFC892",
"f 	c #D9C78B",
"g 	c #A4BD4F",
"h 	c #B1C05E",
"i 	c #E3CB93",
"j 	c #D9B781",
"k 	c #D4B67E",
"l 	c #E2CA92",
"m 	c #BFC36E",
"n 	c #9FBC49",
"o 	c #9BBB45",
"p 	c #BEC26D",
"q 	c #E0C994",
"r 	c #CEC57F",
"s 	c #A7BE52",
"t 	c #98BB40",
"u 	c #B0BF5C",
"v 	c #DBBA86",
"w 	c #D8BD87",
"x 	c #D9C186",
"y 	c #DBBF89",
"z 	c #E3CB91",
"A 	c #C7C476",
"B 	c #BFC26E",
"C 	c #B3C05F",
"D 	c #BEC26C",
"E 	c #B8C165",
"F 	c #B4C061",
"G 	c #CFC57F",
"H 	c #A3BD4E",
"I 	c #DDCA8D",
"J 	c #DFC28E",
"K 	c #D9BF89",
"L 	c #D9C187",
"M 	c #DCBE8A",
"N 	c #E3CA93",
"O 	c #C2C371",
"P 	c #90B937",
"Q 	c #BFC26D",
"R 	c #9CBB45",
"S 	c #B6C163",
"T 	c #BCC26A",
"U 	c #DAC78C",
"V 	c #9EBC48",
"W 	c #E1CB91",
"X 	c #DFC18D",
"Y 	c #D9BE89",
"Z 	c #DBC487",
"` 	c #D7BD85",
" .	c #DABB89",
"..	c #DFC992",
"+.	c #C5C374",
"@.	c #91B939",
"#.	c #C8C477",
"$.	c #D0C581",
"%.	c #C5C375",
"&.	c #E2C995",
"*.	c #ABBE57",
"=.	c #D4C686",
"-.	c #D6C788",
";.	c #C1C370",
">.	c #D7C78A",
",.	c #ABBF57",
"'.	c #DEC891",
").	c #D6BB82",
"!.	c #D9BA88",
"~.	c #D9C88B",
"{.	c #AEBF5A",
"].	c #94BA3D",
"^.	c #C6C476",
"/.	c #A9BE55",
"(.	c #DBC88D",
"_.	c #D7C789",
":.	c #A0BC4A",
"<.	c #ABBE56",
"[.	c #D6C787",
"}.	c #CEC57E",
"|.	c #DCC88F",
"1.	c #E1CB92",
"2.	c #DABA85",
"3.	c #D4B77F",
"4.	c #D5BA81",
"5.	c #D2AE79",
"6.	c #E1C78F",
"7.	c #DAC88D",
"8.	c #A6BD50",
"9.	c #98BB41",
"0.	c #9ABB43",
"a.	c #D1C683",
"b.	c #C3C372",
"c.	c #96BA3E",
"d.	c #C4C373",
"e.	c #A2BD4C",
"f.	c #DAC78D",
"g.	c #D2C684",
"h.	c #99BB42",
"i.	c #B7C164",
"j.	c #D2AE7A",
"k.	c #E0C68D",
"l.	c #B6C063",
"m.	c #9BBB44",
"n.	c #96BA3F",
"o.	c #C8C478",
"p.	c #DFC993",
"q.	c #ACBF57",
"r.	c #94BA3C",
"s.	c #CFC580",
"t.	c #B7C165",
"u.	c #DDC891",
"v.	c #D8B781",
"w.	c #D7BD83",
"x.	c #E1CA95",
"y.	c #E0C993",
"z.	c #C4C374",
"A.	c #8BB832",
"B.	c #D3C685",
"C.	c #DDC890",
"D.	c #D3B481",
"E.	c #DBC28C",
"F.	c #DEC991",
"G.	c #C3C373",
"H.	c #93BA3B",
"I.	c #AEBF5B",
"J.	c #D0C681",
"K.	c #95BA3D",
"L.	c #B9C166",
"M.	c #DFC18C",
"N.	c #D9BE87",
"O.	c #DAC486",
"P.	c #DAC187",
"Q.	c #E1C68E",
"R.	c #C2C372",
"S.	c #D5C687",
"T.	c #D9C78C",
"U.	c #DEC892",
"V.	c #D2B27F",
"W.	c #D2B17E",
"X.	c #D0AD7C",
"Y.	c #DCC38D",
"Z.	c #BEC36C",
"`.	c #90B938",
" +	c #E1CA91",
".+	c #88B82E",
"++	c #CDC57E",
"@+	c #8AB830",
"#+	c #D8BC8A",
"$+	c #D5B885",
"%+	c #DDC990",
"&+	c #D8BF89",
"*+	c #CFAC7B",
"=+	c #DBC38C",
"-+	c #B8C166",
";+	c #97BB3F",
">+	c #9DBC47",
",+	c #ACBF58",
"'+	c #DBC587",
")+	c #DAC288",
"!+	c #DAC88C",
"~+	c #A8BE53",
"{+	c #ADBF59",
"]+	c #D5C686",
"^+	c #D8BD8B",
"/+	c #D9BE8C",
"(+	c #DDC991",
"_+	c #9CBC45",
":+	c #A8BE54",
"<+	c #DEC08C",
"[+	c #D6B982",
"}+	c #D7BD87",
"|+	c #DBBD8A",
"1+	c #A2BD4D",
"2+	c #D9BD8C",
"3+	c #D6B787",
"4+	c #DDC590",
"5+	c #A9BE53",
"6+	c #A1BD4C",
"7+	c #D8C78A",
"8+	c #99BB41",
"9+	c #D9B981",
"0+	c #D6BA81",
"a+	c #D9C386",
"b+	c #D7C28A",
"c+	c #D4B782",
"d+	c #D6B482",
"e+	c #B1C05D",
"f+	c #D4C685",
"g+	c #92BA3A",
"h+	c #E0C893",
"i+	c #CAA175",
"j+	c #D3B381",
"k+	c #DBC38E",
"l+	c #D7BA8A",
"m+	c #DCC58F",
"n+	c #A9BE54",
"o+	c #A1BF4F",
"p+	c #DCCE98",
"q+	c #E0CD9A",
"r+	c #87B82D",
"s+	c #D1C682",
"t+	c #DFC893",
"u+	c #DEC08A",
"v+	c #D5BA80",
"w+	c #DAC386",
"x+	c #BEAB8F",
"y+	c #C7A67F",
"z+	c #E1C68D",
"A+	c #D9C88C",
"B+	c #A6BD51",
"C+	c #A6BE51",
"D+	c #9CBC46",
"E+	c #CBA377",
"F+	c #D0AA81",
"G+	c #CDA67A",
"H+	c #D6B986",
"I+	c #DBC58E",
"J+	c #9BBF4B",
"K+	c #D4D5A1",
"L+	c #E4D1A4",
"M+	c #D5CA8D",
"N+	c #B0BF5D",
"O+	c #CBC57C",
"P+	c #DABA82",
"Q+	c #CFB482",
"R+	c #DAC487",
"S+	c #D5B982",
"T+	c #D0AB7A",
"U+	c #E0C68E",
"V+	c #DBC98D",
"W+	c #D9C08A",
"X+	c #CBA276",
"Y+	c #D5B787",
"Z+	c #DCC78F",
"`+	c #D8BC8B",
" @	c #D7B98A",
".@	c #B9C46B",
"+@	c #99BE47",
"@@	c #CBD294",
"#@	c #9DBF4C",
"$@	c #DABB85",
"%@	c #D8BE86",
"&@	c #D7BC85",
"*@	c #D2AD7A",
"=@	c #B3C060",
"-@	c #C7C477",
";@	c #DBC48E",
">@	c #D4B486",
",@	c #D6B888",
"'@	c #DAC28C",
")@	c #DDC795",
"!@	c #BAC56D",
"~@	c #90BD3F",
"{@	c #B2C263",
"]@	c #D7C88B",
"^@	c #E1CC94",
"/@	c #E2CA98",
"(@	c #DAC186",
"_@	c #DBC588",
":@	c #D9C087",
"<@	c #D3B07B",
"[@	c #E0CA94",
"}@	c #B6C164",
"|@	c #D7BB8A",
"1@	c #D5B784",
"2@	c #DBC48D",
"3@	c #D2C683",
"4@	c #CCC57D",
"5@	c #91BA39",
"6@	c #DFC994",
"7@	c #E4D19E",
"8@	c #DFC691",
"9@	c #D6BB7F",
"0@	c #DAC387",
"a@	c #D9BF87",
"b@	c #D3B07C",
"c@	c #D8C88A",
"d@	c #DBC88E",
"e@	c #D8C78B",
"f@	c #C0C26E",
"g@	c #DAC18C",
"h@	c #D7B989",
"i@	c #DFC692",
"j@	c #D3C684",
"k@	c #DCC890",
"l@	c #E2CD98",
"m@	c #DBBC83",
"n@	c #D5B97F",
"o@	c #D4B883",
"p@	c #D3AE7B",
"q@	c #CBC47B",
"r@	c #91B938",
"s@	c #D8BA8B",
"t@	c #CDC27E",
"u@	c #8EB935",
"v@	c #BAC168",
"w@	c #DBC78D",
"x@	c #E0CA91",
"y@	c #D4B77E",
"z@	c #D9C286",
"A@	c #D1AC7A",
"B@	c #A5BD4F",
"C@	c #BBC169",
"D@	c #CAC47A",
"E@	c #ADBF58",
"F@	c #D8B680",
"G@	c #DAC285",
"H@	c #D2AC7A",
"I@	c #CDC57D",
"J@	c #DAC58D",
"K@	c #8AB831",
"L@	c #C8C57A",
"M@	c #E1CD9A",
"N@	c #D8B67F",
"O@	c #D4B680",
"P@	c #DBC68A",
"Q@	c #82B627",
"R@	c #D3B482",
"S@	c #D3B282",
"T@	c #DCC38E",
"U@	c #D5C786",
"V@	c #C9C478",
"W@	c #B0C160",
"X@	c #E1D7AF",
"Y@	c #E4D3A9",
"Z@	c #E0CD9C",
"`@	c #E2CD95",
" #	c #DDC092",
".#	c #D6BA8B",
"+#	c #DBC589",
"@#	c #D7BE87",
"##	c #D3B17C",
"$#	c #CAC47B",
"%#	c #86B72C",
"&#	c #D4B581",
"*#	c #D6B989",
"=#	c #D9C58C",
"-#	c #D4C785",
";#	c #DDCA93",
">#	c #E4E0C3",
",#	c #CECF91",
"'#	c #D9CE97",
")#	c #E2D0A2",
"!#	c #E6D8AF",
"~#	c #DEC59D",
"{#	c #D8BC8D",
"]#	c #DCC68B",
"^#	c #D3B581",
"/#	c #DCC48F",
"(#	c #DFCA96",
"_#	c #BDCD7F",
":#	c #D2CA89",
"<#	c #DFCE9C",
"[#	c #E4DAB7",
"}#	c #E6DAB2",
"|#	c #DCBF91",
"1#	c #D4B583",
"2#	c #D6BC81",
"3#	c #D4B27C",
"4#	c #E0C78D",
"5#	c #D5C787",
"6#	c #DBC38D",
"7#	c #D1AF7E",
"8#	c #DAC28B",
"9#	c #D1B080",
"0#	c #DAC38C",
"a#	c #86B82D",
"b#	c #BEC570",
"c#	c #C4C474",
"d#	c #A5BE50",
"e#	c #DBCD97",
"f#	c #E2D0A1",
"g#	c #E1CB94",
"h#	c #D7B57F",
"i#	c #C79D6D",
"j#	c #D8B984",
"k#	c #DFCA92",
"l#	c #DDC790",
"m#	c #D0AF7D",
"n#	c #DFC991",
"o#	c #E0C790",
"p#	c #DAC18D",
"q#	c #CCA379",
"r#	c #D6B984",
"s#	c #CEA979",
"t#	c #BBC269",
"u#	c #A1BD4B",
"v#	c #A4BF53",
"w#	c #E3D09C",
"x#	c #D7C1A0",
"y#	c #CDAA76",
"z#	c #C49769",
"A#	c #CEA877",
"B#	c #DFCA90",
"C#	c #BBC168",
"D#	c #DAC18B",
"E#	c #C4976A",
"F#	c #D3B37F",
"G#	c #E0CB91",
"H#	c #E2CD92",
"I#	c #E3CD92",
"J#	c #DBC28E",
"K#	c #DCBD8B",
"L#	c #DFC88F",
"M#	c #DECA91",
"N#	c #DCC28B",
"O#	c #D3B280",
"P#	c #8FB936",
"Q#	c #C0C26F",
"R#	c #E0CA92",
"S#	c #DFC592",
"T#	c #D1B595",
"U#	c #D0AF7B",
"V#	c #D6BB81",
"W#	c #D5AF7B",
"X#	c #D8BB87",
"Y#	c #C89B6E",
"Z#	c #DCBC86",
"`#	c #E2CC92",
" $	c #DDBF8C",
".$	c #DFC58C",
"+$	c #CA9D6E",
"@$	c #DDBE87",
"#$	c #C79A6B",
"$$	c #D1B07B",
"%$	c #C89F6E",
"&$	c #D5B17C",
"*$	c #E2CB93",
"=$	c #C7C577",
"-$	c #D2BE83",
";$	c #D4AF85",
">$	c #E0C38E",
",$	c #E3CC92",
"'$	c #E2CB91",
")$	c #C99C6D",
"!$	c #DDBF87",
"~$	c #C89B6C",
"{$	c #D2B37D",
"]$	c #D8BE82",
"^$	c #CBA672",
"/$	c #D6B27D",
"($	c #DAC98A",
"_$	c #9ABF4B",
":$	c #DCC28F",
"<$	c #D4B086",
"[$	c #DFC38E",
"}$	c #D0AC7C",
"|$	c #A3BD4D",
"1$	c #C79A6C",
"2$	c #D2B37B",
"3$	c #D8BF82",
"4$	c #CCA873",
"5$	c #DFCA8F",
"6$	c #A3C863",
"7$	c #DED9B3",
"8$	c #E0CD9D",
"9$	c #C9C579",
"0$	c #C89D6D",
"a$	c #D9C083",
"b$	c #D0AF78",
"c$	c #A6BE52",
"d$	c #A5C45C",
"e$	c #D8C98E",
"f$	c #DBC28F",
"g$	c #DDBE89",
"h$	c #DEC990",
"i$	c #E2C991",
"j$	c #D6B286",
"k$	c #D5B585",
"l$	c #D6C688",
"m$	c #D6C887",
"n$	c #DFC28A",
"o$	c #CCA672",
"p$	c #D3B67C",
"q$	c #D9C183",
"r$	c #CCA773",
"s$	c #D6B17D",
"t$	c #C8C578",
"u$	c #DBC18E",
"v$	c #C89C6F",
"w$	c #E2C990",
"x$	c #D7B387",
"y$	c #CEC77E",
"z$	c #DFC28B",
"A$	c #CFAB76",
"B$	c #D6BC80",
"C$	c #D7BD81",
"D$	c #CDA978",
"E$	c #DEBE8C",
"F$	c #D7BB87",
"G$	c #C6986B",
"H$	c #8DB934",
"I$	c #E3C791",
"J$	c #D3B080",
"K$	c #D4B285",
"L$	c #E3CB94",
"M$	c #D7BC87",
"N$	c #CFA87D",
"O$	c #CFC77F",
"P$	c #E1C48E",
"Q$	c #D5B285",
"R$	c #D7BC84",
"S$	c #D4B384",
"T$	c #DFC48B",
"U$	c #D4AF82",
"V$	c #D6BA89",
"W$	c #AABE56",
"X$	c #E2CA95",
"Y$	c #DEBF88",
"Z$	c #CAA172",
"`$	c #D7BB84",
" %	c #D4B283",
".%	c #DEBE8D",
"+%	c #DCCA8C",
"@%	c #C9C47A",
"#%	c #D3B181",
"$%	c #BDC26C",
"%%	c #CEC77D",
"&%	c #D8BF85",
"*%	c #D3B183",
"=%	c #DDCB8D",
"-%	c #C9C479",
";%	c #DFC28D",
">%	c #D0AC7B",
",%	c #97BA3F",
"'%	c #E3C792",
")%	c #D3AF81",
"!%	c #D2B47D",
"~%	c #D8C084",
"{%	c #D3B182",
"]%	c #DCBB89",
"^%	c #E3CC94",
"/%	c #D4C786",
"(%	c #CEA67A",
"_%	c #E2C890",
":%	c #CDA375",
"<%	c #E2C690",
"[%	c #D4B182",
"}%	c #CCA676",
"|%	c #D7B27F",
"1%	c #C6996B",
"2%	c #D9B882",
"3%	c #D6B387",
"4%	c #E1C994",
"5%	c #C0C36F",
"6%	c #CDA576",
"7%	c #D7BE82",
"8%	c #C9A372",
"9%	c #D9B582",
"0%	c #DDCB8E",
"a%	c #D8BB88",
"b%	c #D7BA8B",
"c%	c #BAC167",
"d%	c #D5C886",
"e%	c #DEBF87",
"f%	c #C49A6E",
"g%	c #CFB27D",
"h%	c #D6BD82",
"i%	c #CEAA79",
"j%	c #DDBD8B",
"k%	c #B9C167",
"l%	c #D1A97B",
"m%	c #DDBF88",
"n%	c #CEB17F",
"o%	c #D6C189",
"p%	c #D8BF83",
"q%	c #DEBF8D",
"r%	c #DECA8E",
"s%	c #8CB833",
"t%	c #D7B681",
"u%	c #DFC58B",
"v%	c #D0AE7C",
"w%	c #92BA39",
"x%	c #C7996C",
"y%	c #D3B47D",
"z%	c #DBC586",
"A%	c #D9C084",
"B%	c #D5B484",
"C%	c #DDBD8A",
"D%	c #86B72D",
"E%	c #D9BC88",
"F%	c #C5986C",
"G%	c #C99D6E",
"H%	c #D1AD7D",
"I%	c #9EBC47",
"J%	c #D2C882",
"K%	c #DFC18B",
"L%	c #C7996B",
"M%	c #D3B47E",
"N%	c #DAC286",
"O%	c #CFAC79",
"P%	c #D6B47E",
"Q%	c #DCCA8B",
"R%	c #B5C163",
"S%	c #D0BA7F",
"T%	c #C5966B",
"U%	c #CFAD7B",
"V%	c #D2C783",
"W%	c #D2AD81",
"X%	c #D3B47F",
"Y%	c #CDA874",
"Z%	c #D7B47F",
"`%	c #D3BF83",
" &	c #B8C065",
".&	c #BCC26B",
"+&	c #E1C690",
"@&	c #D6B985",
"#&	c #D8C083",
"$&	c #D7B37E",
"%&	c #DFCA91",
"&&	c #E1C68F",
"*&	c #CEA977",
"=&	c #D5B785",
"-&	c #D3B283",
";&	c #DECA90",
">&	c #D4B085",
",&	c #D3B184",
"'&	c #DDBE8C",
")&	c #97BA40",
"!&	c #A0BC49",
"~&	c #D3B083",
"{&	c #AFBF5B",
"]&	c #DBC98C",
"^&	c #C99E70",
"/&	c #D3B082",
"(&	c #DBB987",
"_&	c #DCC98B",
":&	c #D7BD82",
"<&	c #C79D6E",
"[&	c #D5AF7C",
"}&	c #DEBF89",
"|&	c #D3B57E",
"1&	c #D3C884",
"2&	c #DEC088",
"3&	c #C99F6E",
"4&	c #D6BC82",
"5&	c #D5B07C",
"6&	c #DEC089",
"7&	c #CDA572",
"8&	c #D4B87E",
"9&	c #DBC485",
"0&	c #C9A06F",
"a&	c #CDA776",
"b&	c #CAA271",
"c&	c #C9A370",
"d&	c #D3B57C",
"                                                          . + @ # $                                                             ",
"                                                          % & * = - .                                                           ",
"                                                      . + ; > , ' ) @ !                                                         ",
"                                                      ~ { ] ^ / ( _ : < [                                                       ",
"                                                    } | 1 2 3 4 5 6 7 8 9 [   .                                                 ",
"                                                  $ 0 a b c d e f g h i j k [ .                                                 ",
"                                                } 0 l m n o p q r s t u _ v w [                                                 ",
"                                            [ x y z 2 3 A B C D E F G H 6 I J K !                                               ",
"                                          . L M N O P b G u Q R S E T U V s W X Y Z   . .                                       ",
"                                          `  .1 ..+.@.#.$.%.&.*.=.-.;.>.R ,.'.W X Y !   .                                       ",
"                                      . ).!.1 ~.{.$.O ].^.q Q @./.(._.:.<.[.}.|.1.2.3.!                     .                   ",
"                                    [ 4.5.6.7.8.9.0.a.b.3 ( c.d.e.e./ <.f.g.h.i.'.' ) k [                     .                 ",
"                                  ! ).j.k.~.8.5 _.l.m.a.O n.o.p._.e.q.Q r.+.s.t t.u.' v.).[                                     ",
"                                [ w.j.k.x.%.H f y.z.A.n.B.C.C.D.E.F.G.H.I.3 o.J.K.L.'.W M.N.O..                   .             ",
"                              [ P.= Q.~.R.S.T.U.d.3 O E r '.V.W.X.Y.Z.`.J.d.O _.n.h e '. +X Y Z .                               ",
"                            [ P.M 1 7.s .+( |.++@+g y.'.C.#+$+%+&+*+=+-+;+s.-.>+{.f ,+-+C.W X Y '+                              ",
"                          O.)+M 1 !+6 5 a.e.~+_.{+h.]+'.^+/+(+C.(+&+*+=+t.h._+{.f :+h.3 t.'.W <+[+O.                            ",
"                        $ }+|+1 F.~+/ f e _.1+/.[.b.S.2+/+C.%+=+C.(+K 3+4+i.{.f 5+6+7+s.8+E |.' 9+0+!   .                       ",
"                    a+b+c+d+l %+C.e+h.f+U.e T g+}.h+2+/+C.F.&+i+j+C.(+k+l+m+7.n+o+p+q+q b.r+s+t+ +u+v+. . .                     ",
"                    w+x+y+z+A+B+C+7+u D+f+B 3 o.'.^+/+C.%+K E+F+G+H+%+C.k+l+I+i.J+K+L+M+/ N+=.O+|.' P+Q+R+                      ",
"                  w+S+T+U+V+6 n n B+U u n.;+o.'.#+/+C.(+W+X+Y+C.Z+`+/+C.%+k+ @m+.@+@@@#@u U.s+9.i.'. +$@%@                      ",
"                '+&@*@k.~.6 5 U U 5 B+>.=@-@'.V.$+%+C.;@>@,@C.C.C.C.^+/+C.C.'@X.)@!@~@{@]@B.e r t t.C.^@/@(@                    ",
"              _@:@<@k.[@o.g 7+}@2 T.o <.C.u.|@1@C.%+k+l+m+C.C.C.C.C.C.^+/+C.%+&+X.2@A _.g K.3@q 4@5@p 6@7@8@9@[                 ",
"            0@a@b@U+c@r d@e@C 0.s+f@;+-@C.^+/+(+C.k+l+m+C.C.C.C.C.C.C.C.^+/+C.%+g@h@i@S c o _+$.{.n j@O+k@l@m@n@[               ",
"          $ o@p@k.7.s H.q@7.r@=@f@3 o.'.^+/+C.C.k+l+m+C.C.C.C.C.C.C.C.C.C.^+/+C.%+k+s@t@_.'.u u@n S.v@V w@C.x@: y@.             ",
"        z@c+A@U+7.B@6 C@K.b D@@.`.o.e ^+/+C.%+k+l+m+C.C.C.C.C.C.C.C.C.C.C.C.^+/+C.%+k+s@m+|.E@0.-.T n.b '.|.|.' F@- G@          ",
"      w+o@H@k.c@s 6 _.F / J.-.I@++'.^+/+C.C.k+l+m+C.C.C.C.C.C.C.C.C.C.C.C.C.C.^+/+C.C.k+l+J@-@=.v@K@d.y.j@g L@M@x@N@O@0@        ",
"  . P@%@A@k...r H.C@F Q@{.Q g '.'.R@^+C.%+k+l+m+C.C.C.C.C.C.C.C.C.C.C.C.C.C.C.C.^+/+C.%+;@S@T@U@R 6 _+V@m.W@X@Y@Z@`@ #.#0@.     ",
"  +#@###k.F.'.'.$#K./ {.%#r.#.C.V.&#C.C.;@l+m+C.C.C.C.C.C.C.C.C.C.C.C.C.C.C.C.C.C.^+/+C.C.W+*#=#-#C.C P u ;#>#,#'#)#!#~#{#]#.   ",
". 0+j.k.p.O++.e e 4@J.Q r.o.'.V.^#C.%+&+S@m+C.C.C.C.C.C.C.C.C.C.C.C.C.C.C.C.C.C.C.C.^+^+C.(+k+ @/#F.|.d.d@(#_#J+:#<#[#}#|#1#x . ",
"2#3#4#..4@9.r.d.7.$.5#g #.U.V.&#C.C.6#7#8#C.C.C.C.C.C.C.C.C.C.C.C.C.C.C.C.C.C.C.C.C.C.9#j+C.C.'@X.0#(+'.u.-+a#b#c#d#e#f#g#h#R@z@",
"i#j#k#q@c.v@d.c o ,+y.'.l#m#^#C.C.n#o#m+C.C.C.C.C.C.C.C.C.C.C.C.C.C.C.C.C.C.C.C.C.C.C.p#q#r#(+%+&+s#8#U.t#8+m.K@c u#v#]@C.w#x#y#",
"z#A#B#=@C#'.|.g h.S.b.d D#E#F#G#C.C.H#I#C.C.C.C.C.C.C.C.C.C.C.C.C.C.C.C.C.C.C.C.C.C.C.J#K#L#C.M#N#E#O#..f@++f@P#%.b r@Q#R#S#T#U#",
"V#i#W# +'.f.{+V 5#v@P b F.X#Y#Z#G#C.C.`#I#C.C.C.C.C.C.C.C.C.C.C.C.C.C.C.C.C.C.C.C.C.m+ $ +C.F..$+$X._.g }@J.g+C@$.t t.k#@$#$$$w+",
". ).%$&$*$%.>+-.C#K.H.z.C.=$-$;$>$x@C.C.`#I#C.C.C.C.C.C.C.C.C.C.C.C.C.C.C.C.C.C.C.C.,$'$C.F..$)$X.>.u#n c =@E h.c t.k#!$~${$!   ",
"    ]$^$/$($=.v@_$++d.r.r.c.j@:$<$[$x@C.C.`#I#C.C.C.C.C.C.C.C.C.C.C.C.C.C.C.C.C.C.I#`#C.F..$+$}$_.e.~+f |$:.'.t.i.k#!$1$2$.     ",
"    . 3$4$F@5$B+6$7$8$b.H.-@4@9$:$<$>$G#C.C.`#I#C.C.C.C.C.C.C.C.C.C.C.C.C.C.C.C.I#`#C.F.k.+$}$(.e.g d@h >+5#O -.k#!$0$2$.       ",
"        a$b$F@_ c$d$e$'.-.I@c K.o.f$<$g$x@C.C.`#I#C.C.C.C.C.C.C.C.C.C.C.C.C.C.I#`#C.h$i$j$k$l$f+v@h.4@J._.v@9.m$n$o$p$.         ",
"          q$r$s$I B@( '.++c.v@B K.t$u$v$: G#C.C.`#I#C.C.C.C.C.C.C.C.C.C.C.C.I#`#C.h$w$x$s@c@u#/ -.C@c.4@C@n.y$z$A$B$.           ",
"            C$D$E$I j@O+c v@'.U.B c.t$F$G$: G#C.C.`#I#C.C.C.C.C.C.C.C.C.C.I#`#C.h$w$x$s@_.u#n+{+>+S.T H$K.y$I$J$n@.             ",
"              x K$E$L$=@@.e@'.U.B 3 o.~.M$N$[$x@C.C.`#I#C.C.C.C.C.C.C.C.I#`#C.F.i$x$l+[.|$:+f.|.E@n =.d.O$P$Q$R$                ",
"                } S$E$I s |$f B K.D@b 0.t$:$<$[$x@C.C.`#I#C.C.C.C.C.C.I#`#C.F.T$U$V$'.d.r@o.e '.|.n.W$X$Y$Z$`$[                 ",
"                  }  %.%+%s H.c.@%O+;+q.n.o.f$<$[$x@C.C.`#I#C.C.C.C.I#`#C.F..$+$#%-@g f+$%c.$#e v@9.%%z$~$2$.                   ",
"                    &%*%.%=%N+-%4@c.T C.f@3 9$u$<$;%x@C.C.`#I#C.C.I#`#C.F.T$)$>%'.d@3 9.-.2 c.n+,%y$'%)%!%.                     ",
"                      ~%{%]%^%_.`.S C.{+g.v@P#/%f$(%j G#C.C.`#I#I#`#C.h$_%:%>%5#_.S.r.q.U t+2 t y$<%[%R$.                       ",
"                        C$}%|%I B@H f =@9.V |$-.~.F$1%2%G#C.C.`#`#C.h$w$3% @4%5%_+R {.|.'.f@=.M#Y$6%y@.                         ",
"                        . 7%8%9%0%B+H _.=@C+f.4@m.9$a%G$2%G#C.C.C.F.i$x$b%S.b.-.s H.=.e c%c d%e%f%g%.                           ",
"                            h%i%j%I 6 ,+C.C.k%s+k%P#9$a%1%2%G#C.F.T$l%l+'.5#h.,+f n+|$E ,%y$m%~$n%o%                            ",
"                              p% %q%r%=.|.C H.D+9.s%,%9$F$G$t%M#u%+$v%C.'.S.m.w%{.T.n+].y$Y$x%y%z%                              ",
"                                A%B%C%l B r@b =@D%;.Q F p.E%F%v%G%H%'.C.B.n {.3@I%{+]+J%K%L%M%_@                                ",
"                                  N%O%P%Q%s 5 e@=@0.j@C.g.R%S%T%U%D d.e O @.-%q =.{+V%'%W%X%_@.                                 ",
"                                    p%Y%Z%_ B+g 6 B+e@f+>+P#H `% &r@g+;.t+.&c.D@'.R#+&;$@&'+.                                   ",
"                                      #&^$$&r%6 6 d@=.0.u U ~+h.h.s.#.K.;.t+t#B+%&&&;$$+G@.                                     ",
"                                      . 3$*&E$+%f j@/ u 5#B.(.e.$#f.3@^.3 ;.C.m$&&;$=&} .                                       ",
"                                          ~%-&E$L$-+H$e@o.C -.B+d -@h q B+0.;&<%>&$+}                     .                     ",
"                                            &%,&'&+%s H -..&n+5 ~+u S.v@)&y$<%;$$+$                     .                       ",
"                                              &%,&.%I C+!&8.c%e D@n+H m.%%P$;$$+$                                               ",
"                                                &%~&E$G#B m.3@'.(.{&6 ]&@$^&$+$                                                 ",
"                                                  &%/&(&_&B+g 7+v@c y$m%x%{$w+                                                  ",
"                                                    :&<&[&r%B+R 9.y$}&~$|&z%                                                    ",
"                                                      2#i#[&_&o.1&2&3&@ !                                                       ",
"                                                      . 4&i#5&*$6&7&8&9&                                                        ",
"                                                        . :&0&a&b&8&!                                                           ",
"                                                          [ 2#c&d&.                                                             "};
