/* XPM */
static char * sortie_fermee_xpm[] = {
"64 64 605 2",
"  	c None",
". 	c #CCA676",
"+ 	c #CEAB7A",
"@ 	c #D4AE7A",
"# 	c #DFC68D",
"$ 	c #D6B47F",
"% 	c #CDA978",
"& 	c #D3AC79",
"* 	c #E1C88E",
"= 	c #DCC98E",
"- 	c #E0CA90",
"; 	c #D8B580",
"> 	c #CEA978",
", 	c #D4AF7B",
"' 	c #E2C88F",
") 	c #BDC36B",
"! 	c #9DBC46",
"~ 	c #AABE55",
"{ 	c #DCC98C",
"] 	c #D9B781",
"^ 	c #DDBD8B",
"/ 	c #E2CA91",
"( 	c #BDC26B",
"_ 	c #95BA3E",
": 	c #C6C475",
"< 	c #A4BD4E",
"[ 	c #A5BD50",
"} 	c #DDCA8C",
"| 	c #DAB881",
"1 	c #DEC08D",
"2 	c #E4CB94",
"3 	c #CCC57C",
"4 	c #97BB40",
"5 	c #CBC57B",
"6 	c #DFC892",
"7 	c #D9C78B",
"8 	c #A4BD4F",
"9 	c #B1C05E",
"0 	c #E3CB93",
"a 	c #D9B681",
"b 	c #D0AC7A",
"c 	c #BFC36E",
"d 	c #9FBC49",
"e 	c #9BBB45",
"f 	c #BEC26D",
"g 	c #E0C994",
"h 	c #CEC57F",
"i 	c #A7BE52",
"j 	c #98BB40",
"k 	c #B0BF5C",
"l 	c #DBBA86",
"m 	c #D7B989",
"n 	c #DCBD8B",
"o 	c #E3CB92",
"p 	c #C7C476",
"q 	c #BFC26E",
"r 	c #B3C05F",
"s 	c #BEC26C",
"t 	c #B8C165",
"u 	c #B4C061",
"v 	c #CFC57F",
"w 	c #A3BD4E",
"x 	c #DDCA8D",
"y 	c #DFC28E",
"z 	c #D8BC8B",
"A 	c #E3CA93",
"B 	c #C2C371",
"C 	c #90B937",
"D 	c #BFC26D",
"E 	c #9CBB45",
"F 	c #B6C163",
"G 	c #BCC26A",
"H 	c #DAC78C",
"I 	c #9EBC48",
"J 	c #E1CB91",
"K 	c #DFC18D",
"L 	c #D9BC8B",
"M 	c #DABA8A",
"N 	c #DFC992",
"O 	c #C5C374",
"P 	c #91B939",
"Q 	c #C8C477",
"R 	c #D0C581",
"S 	c #C5C375",
"T 	c #E2C995",
"U 	c #ABBE57",
"V 	c #D4C686",
"W 	c #D6C788",
"X 	c #C1C370",
"Y 	c #D7C78A",
"Z 	c #ABBF57",
"` 	c #DEC891",
" .	c #D9B988",
"..	c #D9C88B",
"+.	c #AEBF5A",
"@.	c #94BA3D",
"#.	c #C6C476",
"$.	c #A9BE55",
"%.	c #DBC88D",
"&.	c #D7C789",
"*.	c #A0BC4A",
"=.	c #ABBE56",
"-.	c #D6C787",
";.	c #CEC57E",
">.	c #DCC88F",
",.	c #E1CB92",
"'.	c #DABA85",
").	c #D1AF7C",
"!.	c #D1AB78",
"~.	c #E1C78F",
"{.	c #DAC88D",
"].	c #A6BD50",
"^.	c #98BB41",
"/.	c #9ABB43",
"(.	c #D1C683",
"_.	c #C3C372",
":.	c #96BA3E",
"<.	c #C4C373",
"[.	c #A2BD4C",
"}.	c #DAC78D",
"|.	c #D2C684",
"1.	c #99BB42",
"2.	c #B7C164",
"3.	c #CFAB7A",
"4.	c #D1AB79",
"5.	c #E0C68D",
"6.	c #B6C063",
"7.	c #9BBB44",
"8.	c #96BA3F",
"9.	c #C8C478",
"0.	c #DFC993",
"a.	c #ACBF57",
"b.	c #94BA3C",
"c.	c #CFC580",
"d.	c #B7C165",
"e.	c #DDC891",
"f.	c #D8B681",
"g.	c #E1CA95",
"h.	c #E0C993",
"i.	c #C4C374",
"j.	c #8BB832",
"k.	c #D3C685",
"l.	c #DDC890",
"m.	c #D3B481",
"n.	c #DBC28C",
"o.	c #DEC991",
"p.	c #C3C373",
"q.	c #93BA3B",
"r.	c #AEBF5B",
"s.	c #D0C681",
"t.	c #95BA3D",
"u.	c #B9C166",
"v.	c #D8BA8A",
"w.	c #D5B17E",
"x.	c #E1C68E",
"y.	c #C2C372",
"z.	c #D5C687",
"A.	c #D9C78C",
"B.	c #DEC892",
"C.	c #D2B27F",
"D.	c #D2B17E",
"E.	c #D0AD7C",
"F.	c #DCC38D",
"G.	c #BEC36C",
"H.	c #90B938",
"I.	c #E1CA91",
"J.	c #88B82E",
"K.	c #CDC57E",
"L.	c #8AB830",
"M.	c #D8BC8A",
"N.	c #D5B885",
"O.	c #DDC990",
"P.	c #D8BF89",
"Q.	c #CFAC7B",
"R.	c #DBC38C",
"S.	c #B8C166",
"T.	c #97BB3F",
"U.	c #9DBC47",
"V.	c #ACBF58",
"W.	c #DAC88C",
"X.	c #A8BE53",
"Y.	c #ADBF59",
"Z.	c #D5C686",
"`.	c #D8BD8B",
" +	c #D9BE8C",
".+	c #DDC991",
"++	c #9CBC45",
"@+	c #A8BE54",
"#+	c #DEC08C",
"$+	c #D3B280",
"%+	c #D6BA88",
"&+	c #DBBC8B",
"*+	c #A2BD4D",
"=+	c #D9BD8C",
"-+	c #D9BF89",
";+	c #D6B787",
">+	c #DDC590",
",+	c #A9BE53",
"'+	c #A1BD4C",
")+	c #D8C78A",
"!+	c #99BB41",
"~+	c #D1B281",
"{+	c #D6B482",
"]+	c #E2CA92",
"^+	c #B1C05D",
"/+	c #D4C685",
"(+	c #92BA3A",
"_+	c #E0C893",
":+	c #CAA175",
"<+	c #D3B381",
"[+	c #DBC38E",
"}+	c #D7BA8A",
"|+	c #DCC58F",
"1+	c #A9BE54",
"2+	c #A1BF4F",
"3+	c #DCCE98",
"4+	c #E0CD9A",
"5+	c #87B82D",
"6+	c #D1C682",
"7+	c #DFC893",
"8+	c #DEC08B",
"9+	c #B09E94",
"0+	c #C6A57F",
"a+	c #E1C68D",
"b+	c #D9C88C",
"c+	c #A6BD51",
"d+	c #A6BE51",
"e+	c #9CBC46",
"f+	c #CBA377",
"g+	c #D0AA81",
"h+	c #CDA67A",
"i+	c #D6B986",
"j+	c #DBC58E",
"k+	c #9BBF4B",
"l+	c #D4D5A1",
"m+	c #E4D1A4",
"n+	c #D5CA8D",
"o+	c #B0BF5D",
"p+	c #CBC57C",
"q+	c #DAB882",
"r+	c #D2B381",
"s+	c #D0AA7A",
"t+	c #E0C68E",
"u+	c #DBC98D",
"v+	c #D9C08A",
"w+	c #CBA276",
"x+	c #D5B787",
"y+	c #DCC78F",
"z+	c #D7B98A",
"A+	c #B9C46B",
"B+	c #99BE47",
"C+	c #CBD294",
"D+	c #9DBF4C",
"E+	c #D2AC7A",
"F+	c #B3C060",
"G+	c #C7C477",
"H+	c #DBC48E",
"I+	c #D4B486",
"J+	c #D6B888",
"K+	c #DAC28C",
"L+	c #DDC795",
"M+	c #BAC56D",
"N+	c #90BD3F",
"O+	c #B2C263",
"P+	c #D7C88B",
"Q+	c #E1CC94",
"R+	c #E5CD9F",
"S+	c #D8BE88",
"T+	c #D3AF7B",
"U+	c #E0CA94",
"V+	c #B6C164",
"W+	c #D7BB8A",
"X+	c #D5B784",
"Y+	c #DBC48D",
"Z+	c #D2C683",
"`+	c #CCC57D",
" @	c #91BA39",
".@	c #DFC994",
"+@	c #E4D19E",
"@@	c #E1C797",
"#@	c #D3B07C",
"$@	c #D8C88A",
"%@	c #DBC88E",
"&@	c #D8C78B",
"*@	c #C0C26E",
"=@	c #DAC18C",
"-@	c #DFC692",
";@	c #D3C684",
">@	c #DCC890",
",@	c #E2CD98",
"'@	c #DBBA83",
")@	c #D2B482",
"!@	c #D3AE7B",
"~@	c #CBC47B",
"{@	c #91B938",
"]@	c #D8BA8B",
"^@	c #CDC27E",
"/@	c #8EB935",
"(@	c #BAC168",
"_@	c #DBC78D",
":@	c #E0CA91",
"<@	c #CFAA79",
"[@	c #D1AC7A",
"}@	c #A5BD4F",
"|@	c #BBC169",
"1@	c #CAC47A",
"2@	c #ADBF58",
"3@	c #CDA777",
"4@	c #CDC57D",
"5@	c #DAC58D",
"6@	c #8AB831",
"7@	c #C8C57A",
"8@	c #E1CD9A",
"9@	c #D8B57F",
"0@	c #CFAB7C",
"a@	c #D7BC87",
"b@	c #82B627",
"c@	c #D3B482",
"d@	c #D3B282",
"e@	c #DCC38E",
"f@	c #D5C786",
"g@	c #C9C478",
"h@	c #B0C160",
"i@	c #E1D7AF",
"j@	c #E4D3A9",
"k@	c #E0CD9C",
"l@	c #E2CD95",
"m@	c #DDC092",
"n@	c #D5B78D",
"o@	c #D6BB88",
"p@	c #CAC47B",
"q@	c #86B72C",
"r@	c #D4B581",
"s@	c #D6B989",
"t@	c #D9C58C",
"u@	c #D4C785",
"v@	c #DDCA93",
"w@	c #E4E0C3",
"x@	c #CECF91",
"y@	c #D9CE97",
"z@	c #E2D0A2",
"A@	c #E6D8AF",
"B@	c #DEC59D",
"C@	c #D7BA8F",
"D@	c #D1AC79",
"E@	c #D3B581",
"F@	c #DCC48F",
"G@	c #DFCA96",
"H@	c #BDCD7F",
"I@	c #D2CA89",
"J@	c #DFCE9C",
"K@	c #E4DAB7",
"L@	c #E6DAB2",
"M@	c #DCBF91",
"N@	c #D3B383",
"O@	c #D2AD7A",
"P@	c #E0C78D",
"Q@	c #D5C787",
"R@	c #DBC38D",
"S@	c #D1AF7E",
"T@	c #DAC28B",
"U@	c #D1B080",
"V@	c #DAC38C",
"W@	c #86B82D",
"X@	c #BEC570",
"Y@	c #C4C474",
"Z@	c #A5BE50",
"`@	c #DBCD97",
" #	c #E2D0A1",
".#	c #E1CB94",
"+#	c #D7B57F",
"@#	c #D1B081",
"##	c #C08D63",
"$#	c #D8B984",
"%#	c #DFCA92",
"&#	c #DDC790",
"*#	c #D0AF7D",
"=#	c #DFC991",
"-#	c #E0C790",
";#	c #DAC18D",
">#	c #CCA379",
",#	c #D6B984",
"'#	c #CEA979",
")#	c #BBC269",
"!#	c #A1BD4B",
"~#	c #A4BF53",
"{#	c #E3D09C",
"]#	c #D7C1A1",
"^#	c #C69C6F",
"/#	c #C19166",
"(#	c #CEA877",
"_#	c #DFCA90",
":#	c #BBC168",
"<#	c #DAC18B",
"[#	c #C4976A",
"}#	c #D3B37F",
"|#	c #E0CB91",
"1#	c #E2CD92",
"2#	c #E3CD92",
"3#	c #DBC28E",
"4#	c #DFC88F",
"5#	c #DECA91",
"6#	c #DCC28B",
"7#	c #8FB936",
"8#	c #C0C26F",
"9#	c #E0CA92",
"0#	c #DFC592",
"a#	c #D1B595",
"b#	c #CBA677",
"c#	c #C39468",
"d#	c #D5AF7B",
"e#	c #D8BB87",
"f#	c #C89B6E",
"g#	c #DCBC86",
"h#	c #E2CC92",
"i#	c #DDBF8C",
"j#	c #DFC58C",
"k#	c #CA9D6E",
"l#	c #DDBE87",
"m#	c #C6986A",
"n#	c #CBA475",
"o#	c #C29266",
"p#	c #D5B07C",
"q#	c #E2CB93",
"r#	c #C7C577",
"s#	c #D2BE83",
"t#	c #D4AF85",
"u#	c #E0C38E",
"v#	c #E3CC92",
"w#	c #E2CB91",
"x#	c #C99C6D",
"y#	c #DDBF87",
"z#	c #C69669",
"A#	c #CBA576",
"B#	c #C18E63",
"C#	c #D6B17D",
"D#	c #DAC98A",
"E#	c #9ABF4B",
"F#	c #DCC28F",
"G#	c #D4B086",
"H#	c #DFC38E",
"I#	c #D0AC7C",
"J#	c #A3BD4D",
"K#	c #C6976A",
"L#	c #C18F64",
"M#	c #D8B47F",
"N#	c #DFCA8F",
"O#	c #A3C863",
"P#	c #DED9B3",
"Q#	c #E0CD9D",
"R#	c #C9C579",
"S#	c #C59568",
"T#	c #D8B480",
"U#	c #A6BE52",
"V#	c #A5C45C",
"W#	c #D8C98E",
"X#	c #DBC28F",
"Y#	c #DDBE89",
"Z#	c #DEC990",
"`#	c #E2C991",
" $	c #D6B286",
".$	c #D5B585",
"+$	c #D6C688",
"@$	c #D6C887",
"#$	c #DFC28A",
"$$	c #C7996B",
"%$	c #C18F65",
"&$	c #C8C578",
"*$	c #DBC18E",
"=$	c #C89C6F",
"-$	c #D9B881",
";$	c #E2C990",
">$	c #D7B387",
",$	c #CEC77E",
"'$	c #DFC28B",
")$	c #C99B6D",
"!$	c #C89C73",
"~$	c #DEBE8C",
"{$	c #D7BB87",
"]$	c #C6986B",
"^$	c #8DB934",
"/$	c #E3C791",
"($	c #D1AA7F",
"_$	c #D2AD85",
":$	c #E3CB94",
"<$	c #CFA87D",
"[$	c #CFC77F",
"}$	c #E1C48E",
"|$	c #D2AC84",
"1$	c #DFC48B",
"2$	c #D4AF82",
"3$	c #D6BA89",
"4$	c #AABE56",
"5$	c #E2CA95",
"6$	c #DEBF88",
"7$	c #C89B6F",
"8$	c #D1AB83",
"9$	c #DEBE8D",
"0$	c #DCCA8C",
"a$	c #C9C47A",
"b$	c #D3B181",
"c$	c #BDC26C",
"d$	c #CEC77D",
"e$	c #DDCB8D",
"f$	c #C9C479",
"g$	c #DFC28D",
"h$	c #D0AC7B",
"i$	c #97BA3F",
"j$	c #E3C792",
"k$	c #D2AB81",
"l$	c #D0A981",
"m$	c #DCBB89",
"n$	c #E3CC94",
"o$	c #D4C786",
"p$	c #CEA67A",
"q$	c #E2C890",
"r$	c #CDA375",
"s$	c #E2C690",
"t$	c #D2AC81",
"u$	c #C79B71",
"v$	c #D7B27F",
"w$	c #C6996B",
"x$	c #D9B882",
"y$	c #D6B387",
"z$	c #E1C994",
"A$	c #C0C36F",
"B$	c #CB9F73",
"C$	c #BD8B64",
"D$	c #D9B582",
"E$	c #DDCB8E",
"F$	c #D8BB88",
"G$	c #D7BA8B",
"H$	c #BAC167",
"I$	c #D5C886",
"J$	c #DEBF87",
"K$	c #C1936B",
"L$	c #C89B72",
"M$	c #B9C167",
"N$	c #D1A97B",
"O$	c #DDBF88",
"P$	c #C7986A",
"Q$	c #C2A07B",
"R$	c #DEBF8D",
"S$	c #DECA8E",
"T$	c #8CB833",
"U$	c #D7B681",
"V$	c #DFC58B",
"W$	c #D0AE7C",
"X$	c #92BA39",
"Y$	c #CEAA79",
"Z$	c #DDBD8A",
"`$	c #86B72D",
" %	c #D9BC88",
".%	c #C5986C",
"+%	c #C99D6E",
"@%	c #D1AD7D",
"#%	c #9EBC47",
"$%	c #D2C882",
"%%	c #DFC18B",
"&%	c #C7986B",
"*%	c #C99D73",
"=%	c #D6B27D",
"-%	c #DCCA8B",
";%	c #B5C163",
">%	c #D0BA7F",
",%	c #C5966B",
"'%	c #CFAD7B",
")%	c #D2C783",
"!%	c #CFAD7C",
"~%	c #C39367",
"{%	c #D7B27E",
"]%	c #D3BF83",
"^%	c #B8C065",
"/%	c #BCC26B",
"(%	c #E1C690",
"_%	c #C29165",
":%	c #DFCA91",
"<%	c #E1C68F",
"[%	c #D3B385",
"}%	c #C89C71",
"|%	c #DECA90",
"1%	c #D1AC84",
"2%	c #DDBE8C",
"3%	c #97BA40",
"4%	c #D2B285",
"5%	c #A0BC49",
"6%	c #D3B285",
"7%	c #D1AC83",
"8%	c #AFBF5B",
"9%	c #DBC98C",
"0%	c #C99D70",
"a%	c #D1AB82",
"b%	c #DBB987",
"c%	c #DCC98B",
"d%	c #CDA979",
"e%	c #C39368",
"f%	c #D5AF7C",
"g%	c #DEBF89",
"h%	c #D3C884",
"i%	c #DEC088",
"j%	c #DEC089",
"k%	c #C7976A",
"l%	c #C39267",
"m%	c #CDA676",
"n%	c #C08F64",
"                                                              . +                                                               ",
"                                                            @ # $ %                                                             ",
"                                                          & * = - ; >                                                           ",
"                                                        , ' ) ! ~ { ]                                                           ",
"                                                      ^ / ( _ : < [ } |                                                         ",
"                                                    1 2 3 4 5 6 7 8 9 0 a b                                                     ",
"                                                  1 0 c d e f g h i j k { l m                                                   ",
"                                                n o ( _ p q r s t u v w [ x y z                                                 ",
"                                              n A B C 3 v k D E F t G H I i J K L                                               ",
"                                            M / N O P Q R S T U V W X Y E Z ` J K z                                             ",
"                                           ./ ..+.R B @.#.g D P $.%.&.*.=.-.;.>.,.'.).                                          ",
"                                        !.~.{.].^./.(._._ ~ :.<.[.[.! =.}.|.1.2.` - ; 3.                                        ",
"                                      4.5...].< &.6.7.(.B 8.9.0.&.[.a.D b.O c.j d.e.- f.                                        ",
"                                    4.5.g.S w 7 h.i.j.8.k.l.l.m.n.o.p.q.r._ 9.s.t.u.` J K v.                                    ",
"                                  w.x...y.z.A.B.<._ B t h ` C.D.E.F.G.H.s.<.B &.8.9 6 ` I.K L                                   ",
"                                n / {.i J.~ >.K.L.8 h.` l.M.N.O.P.Q.R.S.T.c.W U.+.7 V.S.l.J K L                                 ",
"                              n / W.[ < (.[.X.&.Y.1.Z.` `. +.+l..+P.Q.R.d.1.+++.7 @+1._ d.` J #+$+                              ",
"                          %+&+/ o.X.! 7 6 &.*+$.-._.z.=+ +l.O.R.l..+-+;+>+2.+.7 ,+'+)+c.!+t >.- ]                               ",
"                        ~+{+]+O.l.^+1./+B.6 G (+;._+=+ +l.o.P.:+<+l..+[+}+|+{.1+2+3+4+g _.5+6+7+I.8+                            ",
"                      9+0+a+b+c+d+)+k e+/+q _ 9.` `. +l.O.-+f+g+h+i+O.l.[+}+j+2.k+l+m+n+! o+V p+>.- q+                          ",
"                    r+s+t+u+[ d d c+H k 8.T.9.` M. +l..+v+w+x+l.y+z  +l.O.[+z+|+A+B+C+D+k B.6+^.2.` I.'.                        ",
"                  N.E+5...[ < H H < c+Y F+G+` C.N.O.l.H+I+J+l.l.l.l.`. +l.l.K+E.L+M+N+O+P+k.6 h j d.l.Q+R+                      ",
"                S+T+5.U+9.8 )+V+( A.e =.l.e.W+X+l.O.[+}+|+l.l.l.l.l.l.`. +l.O.P.E.Y+p &.8 t.Z+g `+ @f .@+@@@                    ",
"              S+#@t+$@h %@&@r /.6+*@T.G+l.`. +.+l.[+}+|+l.l.l.l.l.l.l.l.`. +l.O.=@m -@F 4 e ++R +.d ;@p+>@,@'@                  ",
"            )@!@5.{.i q.~@{.{@F+*@_ 9.` `. +l.l.[+}+|+l.l.l.l.l.l.l.l.l.l.`. +l.O.[+]@^@&.` k /@d z.(@I _@l.:@] <@              ",
"          )@[@t+{.}@[ |@t.3 1@P H.9.6 `. +l.O.[+}+|+l.l.l.l.l.l.l.l.l.l.l.l.`. +l.O.[+]@|+>.2@/.W G 8.3 ` >.>.- ; 3@            ",
"        )@E+5.$@i [ &.u ! s.W 4@K.` `. +l.l.[+}+|+l.l.l.l.l.l.l.l.l.l.l.l.l.l.`. +l.l.[+}+5@G+V (@6@<.h.;@8 7@8@:@9@0@          ",
"      a@[@5.N h q.|@u b@+.D 8 ` ` c@`.l.O.[+}+|+l.l.l.l.l.l.l.l.l.l.l.l.l.l.l.l.`. +l.O.H+d@e@f@E [ ++g@7.h@i@j@k@l@m@n@        ",
"    o@#@5.o.` ` p@t.! +.q@b.Q l.C.r@l.l.H+}+|+l.l.l.l.l.l.l.l.l.l.l.l.l.l.l.l.l.l.`. +l.l.v+s@t@u@l.r C k v@w@x@y@z@A@B@C@      ",
"    D@5.0.p+O 6 6 `+s.D b.9.` C.E@l.O.P.d@|+l.l.l.l.l.l.l.l.l.l.l.l.l.l.l.l.l.l.l.l.`.`.l..+[+z+F@o.>.<.%@G@H@k+I@J@K@L@M@N@    ",
"  O@P@N `+^.b.<.{.R Q@8 Q B.C.r@l.l.R@S@T@l.l.l.l.l.l.l.l.l.l.l.l.l.l.l.l.l.l.l.l.l.l.U@<+l.l.K+E.V@.+` e.S.W@X@Y@Z@`@ #.#+#@#  ",
"##$#%#~@:.(@<.4 e V.h.` &#*#E@l.l.=#-#|+l.l.l.l.l.l.l.l.l.l.l.l.l.l.l.l.l.l.l.l.l.l.l.;#>#,#.+O.P.'#T@B.)#!+7.6@4 !#~#P+l.{#]#^#",
"/#(#_#F+:#` >.8 1.z._.5 <#[#}#|#l.l.1#2#l.l.l.l.l.l.l.l.l.l.l.l.l.l.l.l.l.l.l.l.l.l.l.3#n 4#l.5#6#[#$+N *@K.*@7#S 3 {@8#9#0#a#b#",
"  c#d#I.` }.Y.I Q@(@C 3 o.e#f#g#|#l.l.h#2#l.l.l.l.l.l.l.l.l.l.l.l.l.l.l.l.l.l.l.l.l.|+i#I.l.o.j#k#E.&.8 V+s.(+|@R j d.%#l#m#n#  ",
"    o#p#q#S U.W :#t.q.i.l.r#s#t#u#:@l.l.h#2#l.l.l.l.l.l.l.l.l.l.l.l.l.l.l.l.l.l.l.l.v#w#l.o.j#x#E.Y !#d 4 F+t 1.4 d.%#y#z#A#    ",
"      B#C#D#V (@E#K.<.b.b.:.;@F#G#H#:@l.l.h#2#l.l.l.l.l.l.l.l.l.l.l.l.l.l.l.l.l.l.2#h#l.o.j#k#I#&.[.X.7 J#*.` d.2.%#y#K#        ",
"        L#M#N#c+O#P#Q#_.q.G+`+R#F#G#u#|#l.l.h#2#l.l.l.l.l.l.l.l.l.l.l.l.l.l.l.l.2#h#l.o.5.k#I#%.[.8 %@9 U.Q@B W %#y#S#          ",
"            T#{ U#V#W#` W 4@4 t.9.X#G#Y#:@l.l.h#2#l.l.l.l.l.l.l.l.l.l.l.l.l.l.2#h#l.Z#`# $.$+$/+(@1.`+s.&.(@^.@$#$$$            ",
"            %$C#x }@~ ` K.:.(@q t.&$*$=$-$|#l.l.h#2#l.l.l.l.l.l.l.l.l.l.l.l.2#h#l.Z#;$>$]@$@!#! W |@:.`+|@8.,$'$)$              ",
"              !$~$x ;@p+4 (@` B.q :.&${$]$-$|#l.l.h#2#l.l.l.l.l.l.l.l.l.l.2#h#l.Z#;$>$]@&.!#1+Y.U.z.G ^$t.,$/$($                ",
"                _$~$:$F+P &@` B.q _ 9...a@<$H#:@l.l.h#2#l.l.l.l.l.l.l.l.2#h#l.o.`#>$}+-.J#@+}.>.2@d V <.[$}$t#                  ",
"                  |$~$x i J#7 q t.1@3 /.&$F#G#H#:@l.l.h#2#l.l.l.l.l.l.2#h#l.o.1$2$3$` <.{@9.6 ` >.8.4$5$6$7$                    ",
"                    8$9$0$i q.:.a$p+T.a.8.9.X#G#H#:@l.l.h#2#l.l.l.l.2#h#l.o.j#k#b$G+8 /+c$:.p@6 (@^.d$'$z#                      ",
"                      8$9$e$o+f$`+:.G l.*@_ R#*$G#g$:@l.l.h#2#l.l.2#h#l.o.1$x#h$` %@_ ^.W ( :.1+i$,$j$k$                        ",
"                        l$m$n$&.H.F l.Y.|.(@7#o$X#p$] |#l.l.h#2#2#h#l.Z#q$r$h$Q@&.z.b.a.H 7+( j ,$s$t$                          ",
"                          u$v$x }@w 7 F+^.I J#W ..{$w$x$|#l.l.h#h#l.Z#;$y$z+z$A$++E +.>.` *@V 5#6$B$                            ",
"                            C$D$E$c+w &.F+d+}.`+7.R#F$]$x$|#l.l.l.o.`#>$G$z._.W i q.V 6 H$4 I$J$K$                              ",
"                              L$^ x [ V.l.l.M$6+M$7#R#F$w$x$|#l.o.1$N$}+` Q@1.V.7 1+J#t i$,$O$P$Q$                              ",
"                                8$R$S$V >.r q.e+^.T$i$R#{$]$U$5#V$k#W$l.` z.7.X$+.A.1+@.,$6$]$Y$                                ",
"                                  |$Z$]+q {@3 F+`$X D u 0. %.%W$+%@%` l.k.d +.Z+#%Y.Z.$%%%&%W$                                  ",
"                                    *%=%-%i < &@F+/.;@l.|.;%>%,%'%s <.6 B P f$g V Y.)%j$t$!%                                    ",
"                                      ~%{%{ c+8 [ c+&@/+U.7#w ]%^%{@(+X 7+/%:.1@` 9#(%t#I+                                      ",
"                                        _%{%S$[ [ %@V /.k H X.1.1.c.Q t.X 7+)#c+:%<%t#[%                                        ",
"                                          }%~$0$7 ;@! k Q@k.%.[.p@}.Z+#._ X l.@$<%t#[%                                          ",
"                                            8$~$:$S.^$&@9.r W c+5 G+9 g c+/.|%s$t#[%                                            ",
"                                              1%2%0$i w W /%1+< X.k z.(@3%,$s$t#4%                                              ",
"                                                1%9$x d+5%].H$6 1@1+w 7.d$}$t#6%                                                ",
"                                                  7%~$|#q 7.Z+` %.8%[ 9%l#0%[%                                                  ",
"                                                    a%b%c%c+8 )+(@4 ,$O$&%d%                                                    ",
"                                                      e%f%S$c+E ^.,$g%K#+                                                       ",
"                                                        c#f%c%9.h%i%m#                                                          ",
"                                                          ~%p#q#j%k%                                                            ",
"                                                            l%m%]$                                                              ",
"                                                              n%                                                                "};
